<?xml version="1.0" encoding="utf-8"?>
<!-- Generator: Adobe Illustrator 22.0.0, SVG Export Plug-In . SVG Version: 6.00 Build 0)  -->
<svg version="1.1" id="Слой_1" xmlns="http://www.w3.org/2000/svg" xmlns:xlink="http://www.w3.org/1999/xlink" x="0px" y="0px"
	 viewBox="0 0 480 788" style="enable-background:new 0 0 480 788;" xml:space="preserve">
<style type="text/css">
	.st0{fill:url(#path869_1_);}
	.st1{stroke:#FFFFFF;stroke-miterlimit:10;}
	.st2{opacity:0.5;}
	.st3{fill:none;stroke:#FFFFFF;stroke-miterlimit:10;}
	.st4{fill:#FFFFFF;}
	.st5{fill:#FFFFFF;stroke:#FFFFFF;stroke-miterlimit:10;}
</style>
<g id="layer1" transform="translate(-634.01733,109.89967)">
	<linearGradient id="path869_1_" gradientUnits="userSpaceOnUse" x1="872.0012" y1="67.3288" x2="881.0007" y2="676.2983">
		<stop  offset="0" style="stop-color:#FC0000"/>
		<stop  offset="1" style="stop-color:#000000;stop-opacity:0.4"/>
	</linearGradient>
	<path id="path869" class="st0" d="M639.6,672c-5.1-2.7-5.1-10.5-0.1-13.4c5.4-3.1,11.8,0.5,11.8,6.7
		C651.3,671.2,645,674.8,639.6,672L639.6,672z M659.6,672.3c-1.9-0.8-3-2.1-4-4.6c-2.7-6.5,5.5-13.2,11.4-9.2
		c2.8,1.9,3.7,3.6,3.7,6.6c0,2.2-0.3,3-1.4,4.6C666.9,672.8,663.1,673.8,659.6,672.3L659.6,672.3z M678.4,672
		c-5.1-2.7-5.1-10.5-0.1-13.4c5.4-3.1,11.8,0.5,11.8,6.7C690.1,671.2,683.8,674.8,678.4,672z M697.8,672.1c-2.6-1.6-3.9-3.9-3.9-6.9
		c0-8,10.4-10.7,14.5-3.7C712.3,668,704.3,676.1,697.8,672.1z M717.4,672.2c-5-2.4-5.5-10.1-1-13.4c0.9-0.7,2.6-1.2,4.2-1.3
		c3.3-0.3,5.8,1.1,7.3,4C731.3,668.3,724.2,675.6,717.4,672.2L717.4,672.2z M736.5,672c-2.8-1.9-3.8-3.7-3.8-6.7
		c0-8,10.5-10.8,14.5-3.9c1.2,2.1,1.2,5.7,0,7.8c-1.4,2.4-3.3,3.6-6.3,3.8C738.6,673.1,737.9,672.9,736.5,672z M756.1,672.2
		c-4-2-5.4-7.6-2.9-11.3c3.3-4.9,10.8-4.5,13.4,0.6C770.1,668.3,763,675.6,756.1,672.2L756.1,672.2z M775.2,671.9
		c-2.8-1.9-3.8-3.6-3.8-6.7c0-7.8,10.3-10.8,14.3-4.2c1.4,2.3,1.4,6.3-0.1,8.4C783.2,673,778.4,674.1,775.2,671.9L775.2,671.9z
		 M794.8,672.1c-2.7-1.4-4-3.7-4-6.9c0-8.2,11.3-10.9,14.6-3.6c1.2,2.7,1.2,4.5,0,7.1C803.5,672.6,798.6,674.1,794.8,672.1
		L794.8,672.1z M813.8,671.9c-2.1-1.2-3.9-4.3-3.9-6.7c0-2.4,1.8-5.5,4-6.7c5.5-3.1,11.6,0.5,11.6,6.8
		C825.5,671.4,819.1,675,813.8,671.9L813.8,671.9z M833.5,672.1c-2.7-1.4-4-3.7-4-6.9c0-8.1,10.7-10.9,14.5-3.7
		C847.6,668.3,840.3,675.7,833.5,672.1z M852.5,671.9c-2.1-1.2-3.9-4.3-3.9-6.7c0-2.4,1.8-5.5,4-6.7c5.5-3.1,11.6,0.5,11.6,6.7
		C864.3,671.3,857.8,675,852.5,671.9L852.5,671.9z M872.3,672.2c-5.6-2.9-5.6-11,0-13.8c3.9-2,8.4-0.6,10.4,3.2
		C886.4,668.3,879.2,675.6,872.3,672.2L872.3,672.2z M891.4,672c-3.7-2.2-5-6.8-2.9-10.5c2.9-5.2,10.5-5.4,13.5-0.4
		c2,3.2,0.9,8.4-2.2,10.5C897.6,673.2,893.7,673.4,891.4,672L891.4,672z M911.3,672.3c-3.2-1.4-5.1-5.5-4.2-8.9
		c1.9-7.1,11.5-8.2,14.6-1.6C924.9,668.4,918.1,675.3,911.3,672.3L911.3,672.3z M930.1,672c-5.1-2.7-5.2-10.4-0.1-13.3
		c5.5-3.2,11.8,0.3,11.8,6.6C941.8,671.2,935.4,674.8,930.1,672z M1007.8,672.2c-5-2.4-5.5-10.1-1-13.4c2.4-1.7,6.6-1.8,8.9-0.3
		c3.5,2.4,4.5,6.9,2.4,10.6C1016.2,672.7,1011.5,674,1007.8,672.2L1007.8,672.2z M640.3,652.8c-2.9-1.5-4.1-3.3-4.4-6.3
		c-0.4-4.2,2.4-7.7,6.7-8.5c2.3-0.4,6.1,1.5,7.6,3.8c1.5,2.3,1.5,5.8,0,8.2c-1.2,1.8-4.9,4-6.7,4C643,653.9,641.5,653.4,640.3,652.8
		L640.3,652.8z M660.6,653.4c-2.2-0.7-4.6-3.2-5.2-5.5c-1.1-4,1.5-8.4,5.6-9.5c3.7-1,7.4,0.8,9.1,4.3
		C672.9,648.6,667,655.3,660.6,653.4L660.6,653.4z M679,652.8c-6.2-3.1-6.1-10.8,0.1-13.9c1.8-0.9,2.8-1.1,4.1-0.9
		c2.4,0.5,4.9,2.3,6,4.3c1.1,2.2,0.9,6-0.5,8c-1.1,1.5-4.9,3.6-6.5,3.6C681.7,653.9,680.2,653.4,679,652.8L679,652.8z M698.2,652.9
		c-7-3.6-5.3-13.6,2.6-14.9c2.5-0.4,6,1.4,7.5,3.7C712.4,648.4,705.2,656.4,698.2,652.9z M719,653.6c-1.6-0.4-4.2-2.6-5-4.2
		c-0.4-0.8-0.8-2.4-0.8-3.5c0-2.6,1-4.6,3.2-6.2c2.5-1.9,5.2-2.1,7.9-0.7c3.3,1.7,4.3,3.4,4.3,6.9c0,3.6-1.1,5.3-4.3,6.9
		C722.1,653.9,721.1,654.1,719,653.6L719,653.6z M736.9,652.8c-2.4-1.2-4.5-4.5-4.5-6.9c0-0.7,0.5-2.3,1.1-3.5
		c3.7-7.3,14.6-4.7,14.6,3.5C748.1,651.8,742.2,655.5,736.9,652.8L736.9,652.8z M757.8,653.6c-1.6-0.4-4.2-2.6-5-4.2
		c-3.3-6.3,3.5-13.5,9.9-10.7c3.2,1.4,4.7,3.7,4.7,7.2c0,3.4-1.5,5.7-4.5,7.1C760.8,653.9,759.7,654,757.8,653.6L757.8,653.6z
		 M775.7,652.8c-6.1-3.1-5.9-11.3,0.4-14.1c5.2-2.3,10.2,0.9,10.6,6.8c0.2,2.4,0,3.2-1,4.6C783.3,653.6,779.3,654.7,775.7,652.8z
		 M796.1,653.4c-4.3-1.3-6.7-7-4.6-11c2.9-5.6,10.6-5.8,13.8-0.3c2.3,4,0.6,9-3.6,10.9C799.4,654,798.3,654.1,796.1,653.4z
		 M814.4,652.8c-6.1-3.1-5.9-11.3,0.4-14.1c8.6-3.8,14.9,8.2,7.2,13.8C819.8,654,817,654.1,814.4,652.8L814.4,652.8z M834.8,653.4
		c-3.3-1-5.3-4-5.3-7.7c0-5.8,5.9-9.4,11.1-6.7c6,3.1,5.9,11.3-0.2,14C838.1,654,837.1,654.1,834.8,653.4z M853.4,653
		c-3-1.4-4.5-3.7-4.5-7.1c0-3.5,1.5-5.7,4.7-7.2c5.1-2.2,10.7,1.5,10.7,7.2C864.2,651.5,858.4,655.3,853.4,653L853.4,653z
		 M873.8,653.4c-3.6-1.1-5.6-3.8-5.6-7.6c0-8.3,10.9-10.9,14.6-3.5c0.6,1.2,1.1,2.8,1.1,3.5c0,2.5-2.1,5.7-4.5,6.9
		C877,654,875.9,654.1,873.8,653.4L873.8,653.4z M892,652.8c-3.3-1.7-4.3-3.4-4.3-6.9c0-3.6,1-5.3,4.3-6.9c5.1-2.6,11,1.1,11,6.9
		c0,2.6-1,4.6-3.2,6.2C897.4,654,894.7,654.2,892,652.8L892,652.8z M912.2,653.4c-3.8-1.1-6.2-5.6-5.2-9.5c1-3.7,5.6-6.7,9-5.8
		c3.6,0.9,6.6,4.4,6.6,7.8C922.6,650.9,917.1,654.9,912.2,653.4L912.2,653.4z M949.9,652.9c-5.9-2.9-5.8-11.2,0-14
		c1.2-0.6,2.7-1,3.3-1c2.1,0,5.4,2,6.6,3.9c2.4,3.9,0.9,9.1-3.3,11.2C954,654.2,952.6,654.2,949.9,652.9L949.9,652.9z M639.6,633.3
		c-5.1-2.7-5.1-10.5-0.1-13.4c5.3-3,11.8,0.7,11.8,6.8C651.3,632.4,644.9,636.1,639.6,633.3L639.6,633.3z M659.6,633.6
		c-1.9-0.8-3-2.1-4-4.6c-2-4.8,2-10.3,7.3-10.3c6.3,0,10.1,7.4,6.3,12.3C666.9,634.1,663.1,635.1,659.6,633.6L659.6,633.6z
		 M678.4,633.3c-5.1-2.7-5.1-10.5-0.1-13.4c5.3-3,11.8,0.7,11.8,6.8C690.1,632.4,683.7,636.1,678.4,633.3z M697.8,633.4
		c-2.6-1.7-3.9-4-3.9-7c0-3,1-4.7,3.8-6.6c1.4-1,2.2-1.1,4.4-1c3,0.2,4.9,1.4,6.4,3.9c1.9,3.3,0.9,7.9-2.3,10.2
		C704.1,634.4,699.9,634.6,697.8,633.4L697.8,633.4z M717.4,633.5c-4.9-2.4-5.5-10.1-1-13.3c0.8-0.6,2.6-1.2,3.9-1.3
		c3.1-0.3,6,1.2,7.5,3.9C731.5,629.3,724.2,636.8,717.4,633.5L717.4,633.5z M736.5,633.2c-2.8-1.9-3.8-3.7-3.8-6.7s1-4.8,3.8-6.7
		c1.4-1,2.2-1.1,4.4-1c4.4,0.4,7.2,3.3,7.2,7.7s-2.8,7.3-7.2,7.7C738.6,634.3,737.9,634.2,736.5,633.2z M756.1,633.5
		c-2.5-1.2-3.8-3.4-4-6.7c-0.2-2.3,0-3.1,1-4.5c3.4-5,10.9-4.6,13.5,0.7c1.3,2.7,1.3,4.9-0.1,7.3
		C764.5,633.8,759.8,635.3,756.1,633.5z M775.2,633.2c-2.8-1.9-3.8-3.6-3.8-6.7c0-7.7,9.8-10.7,14.2-4.3c2.5,3.6,1.1,9.1-2.9,11.1
		C780.3,634.6,777.2,634.6,775.2,633.2z M794.8,633.4c-2.7-1.4-4-3.7-4-6.9c0-6.1,6.3-9.7,11.6-6.7c2.1,1.2,4,4.3,4,6.7
		C806.4,632.2,799.8,636,794.8,633.4z M813.8,633.2c-2.1-1.2-3.9-4.3-3.9-6.7c0-2.4,1.8-5.5,4-6.7c5.4-3,11.6,0.6,11.6,6.7
		C825.5,632.6,819.1,636.3,813.8,633.2z M833.5,633.4c-2.7-1.4-4-3.7-4-6.9c0-7.9,9.5-10.6,14.3-4.1c0.8,1,1.1,2.2,1.1,4.1
		c0,3-1,4.8-3.8,6.7C839,634.6,836,634.6,833.5,633.4L833.5,633.4z M852.5,633.2c-2.1-1.2-3.9-4.3-3.9-6.7c0-2.5,1.8-5.5,4.1-6.8
		c3.9-2.2,9.2-0.5,10.8,3.3C866.6,630.3,859.2,637.1,852.5,633.2L852.5,633.2z M872.3,633.4c-5.6-2.9-5.6-11,0-13.8
		c2.4-1.2,5.5-1.1,7.5,0.3c2.8,1.9,3.8,3.6,3.8,6.7c0,3-1,4.8-3.8,6.7C877.8,634.5,874.8,634.6,872.3,633.4z M891.4,633.2
		c-3.7-2.1-5-6.8-2.9-10.5c3-5.4,11.1-5.2,13.8,0.3c1.1,2.3,0.8,6-0.7,8.1C899.4,634.2,894.7,635.2,891.4,633.2z M911.3,633.6
		c-3.2-1.4-5.1-5.5-4.2-8.9c1-3.7,4-6,7.8-6c2.4,0,4.4,1.1,6.1,3.4c1.1,1.5,1.4,2.3,1.4,4.5C922.3,632.3,916.6,635.9,911.3,633.6z
		 M968.8,633.3c-5.1-2.7-5.1-10.5-0.1-13.4c5.3-3,11.8,0.7,11.8,6.8C980.5,632.4,974.1,636.1,968.8,633.3L968.8,633.3z M988.3,633.4
		c-2.6-1.6-3.9-3.9-3.9-6.9c-0.1-8,10.5-10.7,14.5-3.8c1.9,3.3,0.9,7.9-2.3,10.3C994.5,634.4,990.3,634.6,988.3,633.4L988.3,633.4z
		 M1007.8,633.5c-3.6-1.8-5.2-6.7-3.4-10.4c2.6-5.5,10.5-5.8,13.6-0.6C1022,629.2,1014.8,636.9,1007.8,633.5L1007.8,633.5z
		 M640.3,614c-2.9-1.5-4.1-3.3-4.4-6.3c-0.4-4.2,2.4-7.7,6.7-8.5c2.3-0.4,6.1,1.5,7.6,3.8c1.5,2.3,1.5,5.8,0,8.2
		c-1.2,1.8-4.9,4-6.7,4C643,615.2,641.5,614.7,640.3,614L640.3,614z M660.6,614.6c-2.2-0.6-4.6-3.1-5.2-5.5
		c-1.5-5.7,3.9-11.1,9.5-9.5c4.1,1.1,6.7,5.5,5.6,9.5c-0.7,2.5-3,4.9-5.4,5.5C662.9,615.2,662.7,615.2,660.6,614.6L660.6,614.6z
		 M679,614c-6.2-3.1-6.1-10.8,0.1-13.9c1.8-0.9,2.8-1.1,4.1-0.9c2.4,0.5,4.9,2.3,6,4.3c1.1,2.2,0.9,6-0.5,8
		c-1.1,1.5-4.9,3.6-6.5,3.6C681.7,615.2,680.2,614.7,679,614L679,614z M698.2,614.1c-5.5-2.8-6-10.1-0.9-13.4
		c5.3-3.5,12.1,0.1,12.1,6.4C709.4,613,703.4,616.7,698.2,614.1z M719,614.8c-1.6-0.4-4.2-2.6-5-4.2c-0.4-0.8-0.8-2.4-0.8-3.5
		c0-2.6,1-4.6,3.3-6.3c2.5-1.9,5-2.1,7.8-0.6c3.3,1.7,4.3,3.4,4.3,7c0,3.6-1.1,5.3-4.3,6.9C722.1,615.1,721.1,615.3,719,614.8
		L719,614.8z M736.9,614.1c-2.4-1.2-4.5-4.5-4.5-6.9c0-0.7,0.5-2.3,1.1-3.5c3.7-7.3,14.6-4.7,14.6,3.5
		C748.1,613.1,742.2,616.8,736.9,614.1z M757.8,614.8c-1.6-0.4-4.2-2.6-5-4.2c-3.3-6.3,3.5-13.5,9.9-10.7c3.2,1.4,4.7,3.7,4.7,7.2
		c0,3.4-1.5,5.7-4.5,7.1C760.8,615.1,759.7,615.3,757.8,614.8L757.8,614.8z M775.7,614.1c-6.1-3.1-5.9-11.3,0.4-14.1
		c5.3-2.3,10.7,1.4,10.7,7.4C786.7,613.2,780.8,616.7,775.7,614.1z M796.1,614.6c-4.3-1.3-6.7-7-4.6-11c2.9-5.6,10.6-5.8,13.8-0.3
		c2.3,4,0.6,9-3.6,10.9C799.4,615.2,798.3,615.3,796.1,614.6L796.1,614.6z M814.4,614.1c-6.1-3.1-5.9-11.3,0.4-14.1
		c8.6-3.8,14.9,8.2,7.2,13.8C819.8,615.3,817,615.4,814.4,614.1L814.4,614.1z M834.8,614.6c-3.3-1-5.3-4-5.3-7.7
		c0-5.8,5.9-9.4,11.1-6.7c6,3.1,5.9,11.3-0.2,14C838.1,615.2,837.1,615.3,834.8,614.6z M853.4,614.2c-3-1.4-4.5-3.7-4.5-7.1
		c0-3.5,1.5-5.7,4.6-7.1c5.2-2.3,10.7,1.5,10.7,7.3C864.2,612.8,858.4,616.6,853.4,614.2L853.4,614.2z M873.8,614.7
		c-3.6-1.1-5.6-3.8-5.6-7.6c0-8.3,10.9-10.9,14.6-3.5c0.6,1.2,1.1,2.8,1.1,3.5c0,2.5-2.1,5.7-4.5,6.9
		C877,615.2,875.9,615.3,873.8,614.7L873.8,614.7z M891.9,614c-2.9-1.5-4.1-3.3-4.4-6.3c-0.4-4.2,2.4-7.7,6.7-8.5
		c2.3-0.4,6.1,1.5,7.6,3.8c1.5,2.3,1.5,5.8,0,8.2c-1.2,1.8-4.9,4-6.7,4C894.6,615.2,893.2,614.7,891.9,614L891.9,614z M949.9,614.1
		c-5.9-2.9-5.8-11.2,0-14c1.2-0.6,2.7-1,3.3-1c2.1,0,5.4,2,6.6,3.9c2.4,3.9,0.9,9.1-3.3,11.2C954,615.4,952.6,615.4,949.9,614.1
		L949.9,614.1z M970.7,614.8c-1.6-0.4-4.2-2.6-5-4.2c-2.6-4.9,1.2-11.3,6.8-11.3c4.5,0,7.6,2.9,8,7.3c0.3,3.3-1.1,5.7-4.4,7.3
		C973.8,615.1,972.7,615.3,970.7,614.8z M988.6,614.1c-7-3.5-5.3-13.6,2.6-14.8c1.3-0.2,2.5,0,4.1,0.8c6,2.9,6.1,11.2,0.1,14.1
		C992.7,615.4,991.4,615.4,988.6,614.1L988.6,614.1z M1009.5,614.8c-1.6-0.4-4.2-2.6-5-4.2c-0.4-0.8-0.8-2.4-0.8-3.5
		c0-2.6,1-4.6,3.2-6.2c2.5-1.9,5.2-2.1,7.9-0.7c3.3,1.7,4.3,3.4,4.3,6.9c0,3.6-1.1,5.3-4.3,6.9
		C1012.6,615.1,1011.5,615.3,1009.5,614.8L1009.5,614.8z M1027.3,614c-2.4-1.2-4.5-4.4-4.5-6.9c0-2.5,2.1-5.7,4.5-6.9
		c2.8-1.4,4.1-1.4,6.9-0.1c2.8,1.4,4.3,3.8,4.3,7c0,3.2-1.5,5.6-4.3,7C1031.4,615.5,1030.1,615.4,1027.3,614L1027.3,614z
		 M639.6,594.5c-5.1-2.7-5.1-10.5-0.1-13.4c5.3-3,11.8,0.7,11.8,6.8C651.3,593.7,644.9,597.3,639.6,594.5L639.6,594.5z M659.6,594.8
		c-1.9-0.8-3-2.1-4-4.6c-2.7-6.5,5.5-13.1,11.4-9.2c2.4,1.6,4.1,5.1,3.7,7.7C669.9,593.9,664.4,596.9,659.6,594.8z M678.3,594.4
		c-2.4-1.4-3.8-3.9-3.8-6.7c0-5.9,6.2-9.5,11.6-6.8c3.6,1.8,5.1,6.8,3.1,10.6c-1.2,2.2-4.2,4-6.9,4
		C681.1,595.5,679.5,595,678.3,594.4L678.3,594.4z M697.8,594.6c-2.6-1.7-3.9-4-3.9-7c0-3,1-4.7,3.8-6.6c1.4-1,2.2-1.1,4.4-1
		c3,0.2,4.9,1.4,6.4,3.9c1.9,3.3,0.9,7.9-2.3,10.2C704.1,595.7,699.9,595.9,697.8,594.6L697.8,594.6z M717.4,594.7
		c-4.9-2.4-5.5-10.1-1-13.3c0.8-0.6,2.6-1.2,3.9-1.3c3.1-0.3,6,1.2,7.5,3.9C731.5,590.6,724.2,598.1,717.4,594.7z M736.5,594.4
		c-2.8-1.9-3.8-3.7-3.8-6.7c0-3,1-4.8,3.8-6.7c1.4-1,2.2-1.1,4.4-1c4.4,0.4,7.2,3.3,7.2,7.7c0,4.3-2.8,7.3-7.2,7.7
		C738.6,595.6,737.9,595.4,736.5,594.4L736.5,594.4z M756,594.6c-2.6-1.4-3.7-3.2-3.9-6.4c-0.2-2.4,0-3.1,1-4.7
		c4.3-6.5,14.5-3.4,14.5,4.4C767.6,593.4,761,597.3,756,594.6L756,594.6z M775.2,594.4c-2.8-1.9-3.8-3.6-3.8-6.7
		c0-7.7,9.8-10.7,14.2-4.3c2.5,3.6,1.1,9.1-2.9,11.1C780.3,595.9,777.2,595.8,775.2,594.4z M794.8,594.6c-2.7-1.4-4-3.7-4-6.9
		c0-6.1,6.3-9.7,11.6-6.7c2.1,1.2,4,4.3,4,6.7C806.4,593.4,799.8,597.3,794.8,594.6z M813.8,594.4c-2.1-1.2-3.9-4.3-3.9-6.7
		c0-2.4,1.8-5.5,4-6.7c5.4-3,11.6,0.6,11.6,6.7C825.5,593.9,819.1,597.5,813.8,594.4L813.8,594.4z M833.5,594.6
		c-2.7-1.4-4-3.7-4-6.9c0-7.9,9.5-10.6,14.3-4.1c0.8,1,1.1,2.2,1.1,4.1c0,3-1,4.8-3.8,6.7C839,595.8,836,595.9,833.5,594.6
		L833.5,594.6z M852.5,594.4c-2.1-1.2-3.9-4.3-3.9-6.7c0-4.4,4.1-8.1,8.5-7.7c4.4,0.4,7.1,3.4,7.1,8.1
		C864.2,593.9,857.7,597.4,852.5,594.4L852.5,594.4z M872.3,594.7c-5.6-2.9-5.6-11,0-13.8c2.4-1.2,5.5-1.1,7.5,0.3
		c2.8,1.9,3.8,3.6,3.8,6.7c0,3-1,4.8-3.8,6.7C877.8,595.8,874.8,595.9,872.3,594.7L872.3,594.7z M891.4,594.5c-1-0.6-2.3-1.9-2.9-3
		c-3.8-6.8,3.9-14.3,10.7-10.4c5.2,3,5,11.1-0.4,13.6C896.4,595.8,893.6,595.7,891.4,594.5L891.4,594.5z M930.1,594.5
		c-5.1-2.7-5.1-10.5-0.1-13.4c5.3-3,11.8,0.7,11.8,6.7C941.8,593.7,935.4,597.3,930.1,594.5L930.1,594.5z M949.3,594.4
		c-3.9-2.6-4.9-7.8-2.2-11.3c2.5-3.3,7.1-4.2,10.3-2c3.9,2.6,4.9,7.8,2.2,11.3C957.1,595.7,952.5,596.6,949.3,594.4z M968.8,594.5
		c-5.1-2.7-5.1-10.5-0.1-13.4c5.3-3,11.8,0.7,11.8,6.8C980.5,593.7,974.1,597.3,968.8,594.5L968.8,594.5z M988,594.4
		c-2.5-1.6-4.2-5.3-3.7-8c0.4-2.4,2.6-5.1,4.8-6c2-0.8,5.8-0.4,7.5,0.9c3.5,2.6,4.3,7.7,1.8,11C995.9,595.6,991.2,596.5,988,594.4
		L988,594.4z M1007.8,594.7c-3.6-1.8-5.2-6.7-3.4-10.4c2.6-5.5,10.5-5.8,13.6-0.6C1022,590.5,1014.8,598.2,1007.8,594.7
		L1007.8,594.7z M1026.9,594.4c-2.8-1.9-3.8-3.7-3.8-6.7s1-4.8,3.8-6.7c1.4-1,2.2-1.1,4.4-1c4.4,0.4,7.2,3.3,7.3,7.6
		c0.1,4.3-2.9,7.4-7.3,7.7C1029.1,595.6,1028.3,595.4,1026.9,594.4z M1046.5,594.7c-5.5-2.7-5.5-11.3,0.1-13.9
		c5.3-2.5,11.4,1.4,11.4,7.2C1058,593.4,1051.6,597.2,1046.5,594.7z M640.3,575.3c-2.9-1.5-4.1-3.3-4.4-6.3
		c-0.4-4.2,2.4-7.7,6.7-8.5c2.3-0.4,6.1,1.5,7.6,3.8c1.5,2.3,1.5,5.8,0,8.2c-1.2,1.8-4.9,4-6.7,4C643,576.4,641.5,575.9,640.3,575.3
		L640.3,575.3z M660.6,575.9c-2.1-0.6-4.5-3.1-5.2-5.4c-1.2-3.9,1.5-8.5,5.6-9.6c5.7-1.5,11.1,3.9,9.5,9.5c-0.7,2.5-3,4.9-5.4,5.5
		C662.9,576.5,662.7,576.5,660.6,575.9L660.6,575.9z M679,575.3c-6.2-3.1-6.1-10.8,0.1-13.9c1.8-0.9,2.8-1.1,4.1-0.9
		c2.4,0.5,4.9,2.3,6,4.3c1.1,2.2,0.9,6-0.5,8c-1.1,1.5-4.9,3.6-6.5,3.6C681.7,576.4,680.2,575.9,679,575.3L679,575.3z M698.2,575.3
		c-7.4-3.7-4.8-14.9,3.4-14.7c8.3,0.1,10.8,11.2,3.4,14.8C702.3,576.7,701,576.7,698.2,575.3L698.2,575.3z M719,576.1
		c-1.6-0.4-4.2-2.6-5-4.2c-0.4-0.8-0.8-2.4-0.8-3.5c0-2.6,1-4.6,3.2-6.2c2.5-1.9,5.2-2.1,7.9-0.7c3.3,1.7,4.3,3.4,4.3,6.9
		c0,3.6-1.1,5.3-4.3,6.9C722.1,576.4,721.1,576.5,719,576.1L719,576.1z M736.9,575.3c-2.4-1.2-4.5-4.5-4.5-6.9
		c0-0.7,0.5-2.3,1.1-3.5c3.7-7.3,14.6-4.7,14.6,3.5C748.1,574.3,742.2,578,736.9,575.3L736.9,575.3z M757.8,576.1
		c-1.6-0.4-4.2-2.6-5-4.2c-3.3-6.3,3.5-13.5,9.9-10.7c3.2,1.4,4.7,3.7,4.7,7.2c0,3.4-1.5,5.7-4.5,7.1
		C760.8,576.4,759.7,576.5,757.8,576.1L757.8,576.1z M775.7,575.3c-6-3.1-5.8-11.4,0.4-14.1c5.3-2.3,10.7,1.4,10.7,7.4
		C786.7,574.4,780.8,578,775.7,575.3L775.7,575.3z M796.1,575.9c-4.3-1.3-6.7-7-4.6-11c2.9-5.6,10.6-5.8,13.8-0.3
		c2.3,4,0.6,9-3.6,10.9C799.4,576.5,798.3,576.6,796.1,575.9z M814.4,575.3c-6.1-3.1-5.8-11.3,0.4-14.1c2.8-1.3,5.6-0.9,7.9,1.2
		c2.2,1.9,3,3.9,2.7,7c-0.2,2-0.6,2.9-1.9,4.3c-1.5,1.6-4.1,2.7-6,2.7C817,576.4,815.6,575.9,814.4,575.3L814.4,575.3z M834.8,575.9
		c-1.8-0.5-4.1-2.7-4.8-4.4c-0.2-0.6-0.4-2.2-0.4-3.5c0-5.7,5.9-9.2,11.1-6.6c6,3.1,5.8,11.3-0.2,14
		C838.1,576.5,837.1,576.6,834.8,575.9z M853.4,575.5c-3-1.4-4.5-3.7-4.5-7.1c0-3.5,1.5-5.7,4.7-7.2c2.7-1.2,5.1-0.9,7.5,0.9
		C868.4,567.7,861.7,579.3,853.4,575.5z M873.8,575.9c-3.6-1.1-5.6-3.8-5.6-7.6c0-8.3,10.9-10.9,14.6-3.5c0.6,1.2,1.1,2.8,1.1,3.5
		c0,2.5-2.1,5.7-4.5,6.9C877,576.5,875.9,576.6,873.8,575.9L873.8,575.9z M930.7,575.3c-3.3-1.7-4.3-3.4-4.3-6.9
		c0-3.6,1-5.3,4.3-6.9c5.1-2.6,11,1.1,11,6.9c0,2.6-1,4.6-3.2,6.2C936.1,576.5,933.4,576.7,930.7,575.3z M949.9,575.4
		c-5.9-2.9-5.8-11.2,0.2-14.1c4-1.9,8.3-0.3,10.3,3.8c1.9,3.9,0.3,8.3-3.7,10.2C954,576.7,952.6,576.7,949.9,575.4L949.9,575.4z
		 M970.7,576.1c-1.6-0.4-4.2-2.6-5-4.2c-0.4-0.8-0.8-2.4-0.8-3.5c0-2.6,1-4.6,3.2-6.2c2.5-1.9,5.2-2.1,7.9-0.7
		c3,1.6,4.2,3.3,4.4,6.6c0.2,2.2,0,3-1,4.4C977.5,575.1,973.6,576.8,970.7,576.1z M988.6,575.3c-7-3.5-5.3-13.6,2.6-14.8
		c1.3-0.2,2.5,0,4.1,0.8c6,2.9,6.1,11.2,0.1,14.1C992.7,576.7,991.4,576.7,988.6,575.3L988.6,575.3z M1027.3,575.3
		c-2.4-1.2-4.5-4.4-4.5-6.9c0-0.7,0.5-2.3,1.1-3.5c3.7-7.4,14.6-4.7,14.6,3.5c0,3.2-1.5,5.6-4.3,7
		C1031.4,576.7,1030.1,576.7,1027.3,575.3L1027.3,575.3z M639.3,555.6c-4.8-3.3-4.6-10.5,0.3-13.3c6.8-3.9,14.5,3.5,10.8,10.4
		C648.4,556.5,642.7,558,639.3,555.6z M658.9,555.6c-2.8-1.9-3.7-3.6-3.7-6.6c0-2.2,0.3-3,1.4-4.6c1.6-2.1,3.9-3.3,6.6-3.3
		c2.4,0,4.4,1.1,6.1,3.3c1.1,1.5,1.4,2.4,1.4,4.5c0,4.5-3.4,7.8-7.9,7.8C661.3,556.8,660,556.4,658.9,555.6L658.9,555.6z M678,555.6
		c-4.8-3.2-4.6-10.5,0.4-13.3c6.8-3.9,14.5,3.5,10.8,10.4C687.2,556.5,681.5,558,678,555.6L678,555.6z M697.5,555.7
		c-4.1-2.4-5-8.1-1.9-11.7c1.9-2.2,4-3,6.8-2.7c7.1,0.8,9.4,9.8,3.6,14.1C704,557,699.9,557.1,697.5,555.7L697.5,555.7z
		 M716.9,555.8c-2.3-1.4-3.6-3.8-3.6-6.5c0-4.5,2.7-7.6,7.1-8c4.5-0.4,8.5,3.2,8.5,7.7C728.9,554.8,721.8,558.8,716.9,555.8
		L716.9,555.8z M736.4,555.9c-2.5-1.4-4.2-4.7-3.9-7.6c0.3-2.5,1.5-4.3,3.9-6c1.4-1,2.2-1.1,4.4-1c4.4,0.4,7.2,3.3,7.2,7.7
		c0,4.3-2.8,7.3-7.2,7.7C738.9,556.8,737.7,556.6,736.4,555.9z M755.7,555.8c-5.1-3.1-4.8-11.2,0.6-13.8c5.3-2.5,11.4,1.4,11.4,7.2
		C767.6,554.8,760.5,558.7,755.7,555.8z M775.2,555.8c-1-0.6-2.2-1.8-2.9-3.1c-3.6-6.8,3.7-14.2,10.5-10.6c2.7,1.4,4,3.7,4,6.9
		C786.7,555,780.5,558.7,775.2,555.8z M794.4,555.8c-5.1-3.1-4.9-10.9,0.4-13.7c5-2.7,11.6,1.2,11.6,6.9c0,2.4-1.8,5.5-4,6.7
		C799.9,557.1,796.6,557.1,794.4,555.8L794.4,555.8z M813.9,555.8c-1-0.5-2.3-1.8-2.9-2.9c-3.9-6.8,3.6-14.5,10.4-10.8
		c5.4,2.9,5.4,10.8,0,13.7C819.2,557,816.1,557,813.9,555.8L813.9,555.8z M833.2,555.8c-5.1-3.1-4.9-10.9,0.4-13.7
		c2.4-1.3,5.5-1.2,7.6,0.2c2.8,1.9,3.8,3.6,3.8,6.7c0,3-1,4.8-3.8,6.7C839,557.1,835.4,557.2,833.2,555.8L833.2,555.8z M852.3,555.7
		c-6.8-4.3-3.1-15.2,4.9-14.4c4.4,0.4,7.1,3.4,7.1,8.1C864.2,555.1,857.2,558.8,852.3,555.7L852.3,555.7z M871.8,555.6
		c-4.7-3.1-4.9-9.8-0.4-13c2.4-1.7,6.2-1.9,8.4-0.4c2.8,1.9,3.8,3.7,3.8,6.7c0,3-1,4.8-3.8,6.7C877.6,557.2,874.1,557.2,871.8,555.6
		L871.8,555.6z M910.5,555.6c-4.7-3.2-4.9-9.8-0.4-13.1c0.8-0.6,2.4-1.1,4-1.2c2.2-0.2,3,0,4.4,1c2.8,1.9,3.8,3.7,3.8,6.7
		c0,3-1,4.8-3.8,6.7C916.4,557.2,912.8,557.2,910.5,555.6L910.5,555.6z M929.7,555.6c-4.8-3.3-4.7-10.4,0.3-13.3c4-2.4,9-0.9,11,3.2
		c1.1,2.3,0.8,6-0.7,8.1C938.1,556.8,932.8,557.8,929.7,555.6L929.7,555.6z M949.3,555.6c-2.8-1.9-3.7-3.6-3.7-6.6
		c0-4.5,3.3-7.9,7.9-7.9c2.9,0,5.3,1.6,6.8,4.5c1.4,2.8,1.2,5.4-0.7,7.9C957.1,556.9,952.5,557.8,949.3,555.6L949.3,555.6z
		 M968.4,555.6c-4.8-3.2-4.6-10.5,0.4-13.3c6.8-3.9,14.5,3.5,10.8,10.4C977.6,556.5,971.9,558,968.4,555.6L968.4,555.6z
		 M1065.6,555.8c-1-0.6-2.2-1.8-2.9-3.1c-3.6-6.8,3.6-14.1,10.5-10.6c2.6,1.3,4,3.8,4,6.9C1077.1,555,1070.9,558.7,1065.6,555.8
		L1065.6,555.8z M1084.8,555.8c-5.1-3.1-4.9-10.9,0.4-13.7c5-2.7,11.6,1.2,11.6,6.9c0,2.4-1.8,5.5-4,6.7
		C1090.3,557.1,1087,557.1,1084.8,555.8L1084.8,555.8z M1103.9,555.7c-0.9-0.6-2.1-1.9-2.6-3c-3.5-6.8,3.9-14.2,10.6-10.6
		c5.4,2.9,5.4,10.8,0,13.7C1109.5,557.1,1106,557,1103.9,555.7L1103.9,555.7z M640,536.6c-6.7-3.3-5-13.4,2.6-14.8
		c2.4-0.4,6.1,1.3,7.6,3.7c2.4,3.7,0.9,9.2-3.1,11.1C644.4,537.9,642.6,537.9,640,536.6L640,536.6z M659.5,536.8
		c-5-2.5-6-9.1-1.9-12.7c3.5-3,7.8-3,10.8,0C674.6,530.3,667.4,540.7,659.5,536.8L659.5,536.8z M678.7,536.7
		c-5.2-2.6-5.7-10.2-0.9-13.4c2.7-1.8,4.9-1.9,7.6-0.6c3.1,1.5,4.2,3.3,4.5,6.6c0.2,2.2,0,3-1,4.4
		C686.4,537.4,682.5,538.6,678.7,536.7L678.7,536.7z M699.2,537.3c-2.8-1.1-5.5-4.7-5.5-7.7c0-2.2,1.9-5.3,3.9-6.4
		c3.1-1.7,4.9-1.9,7.4-0.7c5.8,2.8,6.1,10.8,0.5,14C703.5,537.6,700.8,537.9,699.2,537.3L699.2,537.3z M717.5,536.7
		c-5.3-2.7-5.7-10.5-0.7-13.6c2.7-1.6,4.8-1.8,7.4-0.4c3.3,1.7,4.4,3.4,4.4,7c0,2.2-0.3,3.3-1,4.3
		C724.9,537.5,721.1,538.5,717.5,536.7L717.5,536.7z M737.9,537.3c-2.8-1.1-5.5-4.7-5.5-7.5c0-1.9,1.8-5.5,3.3-6.4
		c0.7-0.4,2.2-1.1,3.4-1.4c2-0.5,2.5-0.5,4.5,0.5c3,1.5,4.5,3.8,4.5,7.1c0,3.1-1.3,5.4-3.9,6.9C742.3,537.6,739.6,537.9,737.9,537.3
		L737.9,537.3z M756.1,536.6c-4.9-2.5-5.6-9.6-1.3-13c2.3-1.8,5-2.3,7.6-1.3c3.3,1.3,4.9,3.7,4.9,7.3c0,2.1-0.3,3.3-1,4.3
		C763.7,537.5,759.9,538.5,756.1,536.6z M775.8,536.8c-5.7-2.8-5.9-11-0.3-14c5.5-2.9,11.3,0.7,11.3,7
		C786.7,535.6,780.9,539.3,775.8,536.8z M794.8,536.6c-5.2-2.8-5.5-10.4-0.5-13.5c2.7-1.6,4.8-1.8,7.4-0.4c3.2,1.6,4.7,4.3,4.4,7.6
		C805.7,536.1,799.9,539.3,794.8,536.6z M814.7,536.9c-7.8-3.5-5.3-14.9,3.3-15c4.3-0.1,7.5,3.3,7.5,7.8c0,3.2-1.4,5.5-4.2,6.9
		C818.8,537.8,816.8,537.9,814.7,536.9z M833.5,536.7c-5.1-2.8-5.3-10.5-0.4-13.6c2.7-1.6,4.8-1.8,7.4-0.4c5.4,2.7,6.2,9.6,1.4,13.3
		C839.5,537.8,836,538.1,833.5,536.7L833.5,536.7z M853.4,537c-5-2.2-6.3-8.8-2.5-12.6c5.2-5.2,13.3-1.9,13.3,5.4c0,3-1.4,5.4-4,6.8
		C857.8,537.8,855.7,537.9,853.4,537L853.4,537z M872.1,536.5c-4-2.3-5.3-7.7-2.6-11.2c3.8-5,10.5-4.6,13.3,0.8
		c1.5,2.9,1.3,5.8-0.6,8.2C879.7,537.6,875.6,538.5,872.1,536.5L872.1,536.5z M892.2,537c-5-2.2-6.3-8.8-2.5-12.6
		c3-3,6.9-3.4,10.2-0.9c2.4,1.8,3.3,3.9,3,6.9c-0.3,3.1-1.5,4.9-4.2,6.3C896.3,537.8,894.3,537.9,892.2,537L892.2,537z M910.8,536.5
		c-2.7-1.5-4-3.9-4-7c0-2.8,1-4.5,3.6-6.2c4-2.7,8.9-1.4,11.1,2.8C925.1,533,917.6,540.4,910.8,536.5z M930.9,537
		c-1.8-0.8-4.1-3.4-4.6-5.1c-0.8-3.4,1-7.5,4-9.1c5.2-2.7,11.4,1.1,11.4,6.9C941.8,535.3,936,539.2,930.9,537L930.9,537z
		 M949.9,536.8c-5-2.5-6-9.1-1.9-12.7c3.5-3.1,7.7-3.1,10.8,0C965,530.3,957.7,540.7,949.9,536.8L949.9,536.8z M969.1,536.6
		c-6.7-3.3-5-13.4,2.6-14.8c2.2-0.4,5.9,1.3,7.4,3.3c2.6,3.6,1.1,9.5-2.9,11.5C973.6,537.9,971.7,537.9,969.1,536.6L969.1,536.6z
		 M1007.9,536.7c-5.3-2.7-5.7-10.5-0.7-13.6c2.7-1.6,4.8-1.8,7.4-0.4c3.1,1.5,4.2,3.3,4.5,6.6c0.2,2.2,0,3-1,4.4
		C1015.6,537.4,1011.7,538.6,1007.9,536.7L1007.9,536.7z M1027.4,536.8c-3.4-1.7-5.2-5.7-4.2-9.2c2.3-7.6,13.5-7.6,15,0.1
		c0.8,4-0.6,7.2-3.9,8.9C1032,537.9,1029.7,537.9,1027.4,536.8L1027.4,536.8z M1046.5,536.6c-5.2-2.7-5.6-10.5-0.6-13.5
		c2.7-1.6,4.8-1.8,7.4-0.4c3.3,1.7,4.4,3.4,4.4,7c0,2.2-0.3,3.3-1,4.3C1054.1,537.5,1050.3,538.5,1046.5,536.6L1046.5,536.6z
		 M1066.2,536.8c-4-2-5.6-6.5-3.7-10.4c1.2-2.5,2.5-3.5,5.4-4.3c3.5-1,7.5,1.1,8.8,4.5C1079.3,533.3,1072.5,539.9,1066.2,536.8z
		 M1085.3,536.6c-2.6-1.4-4.1-3.8-4.1-6.8c0-3.9,2.2-6.6,6.2-7.7c2.7-0.7,5.9,0.5,7.8,2.9c1.8,2.4,2,6.8,0.3,9
		C1092.8,537.6,1089,538.5,1085.3,536.6z M1105.1,536.9c-7.8-3.5-5.2-15.1,3.4-15.1c4.2,0,7.5,3.4,7.5,7.9c0,3.2-1.4,5.5-4.2,6.9
		C1109.2,537.8,1107.2,537.9,1105.1,536.9z M639.2,516.9c-6-4-3.7-13.3,3.5-14.3c4.4-0.6,8.7,3.2,8.7,7.7c0,4.5-3.3,7.7-7.8,7.7
		C641.7,518,640.4,517.7,639.2,516.9L639.2,516.9z M659.1,517.1c-3.7-2.3-5-6-3.3-9.8c1.4-3.2,3.7-4.6,7.1-4.6
		c4.7,0,7.7,3.1,7.7,7.9C670.7,516.2,663.9,520,659.1,517.1z M678,516.9c-4.9-3.3-4.4-10.9,0.8-13.5c1.1-0.6,2.7-1,3.5-1
		c5.7,0,9.6,6.5,6.9,11.6C687.1,518,681.7,519.4,678,516.9z M697.5,516.9c-2.6-1.5-4.1-4.7-3.7-7.6c0.9-5.6,6.8-8.5,11.6-5.8
		c2.7,1.5,4,3.9,4,7C709.3,516.5,702.8,520,697.5,516.9L697.5,516.9z M716.9,517c-5.2-3.2-4.7-11,0.8-13.7
		c8.6-4.1,15.6,8.1,7.7,13.4C723.1,518.4,719.3,518.5,716.9,517z M736.4,517.1c-3.9-2.1-5.1-7.7-2.4-11.3c2.5-3.3,6.6-4.2,10.1-2.2
		c7,4,4.2,14.5-3.9,14.5C739.1,518,737.4,517.6,736.4,517.1z M794.4,517c-3.5-2.2-4.8-7.3-2.6-10.9c1.4-2.3,5-4,7.6-3.6
		c7.2,1,9.4,10.6,3.2,14.4C800.4,518.4,796.6,518.4,794.4,517L794.4,517z M891.1,517c-0.9-0.5-2.1-1.9-2.7-3.1
		c-3.4-6.7,3.5-13.8,10.2-10.6c5.5,2.7,5.9,10.5,0.8,13.7C897.2,518.4,893.2,518.4,891.1,517L891.1,517z M910.7,517.1
		c-2.5-1.5-3.8-3.8-3.8-6.6c0-8.5,11.3-11,14.8-3.3c1.2,2.7,1.2,4-0.1,6.7C919.7,517.7,914.3,519.3,910.7,517.1L910.7,517.1z
		 M929.7,516.9c-4.9-3.4-4.5-10.9,0.8-13.5c1.1-0.6,2.7-1,3.5-1c5.6,0,9.5,6.4,6.9,11.6C938.9,517.9,933.3,519.4,929.7,516.9
		L929.7,516.9z M949.5,517.1c-3.7-2.3-5-6-3.3-9.8c1.4-3.2,3.7-4.6,7.1-4.6c3.5,0,5.7,1.5,7.2,4.7c1.6,3.7,0.3,7.7-3.2,9.6
		C955,518.3,951.6,518.3,949.5,517.1L949.5,517.1z M968.4,516.9c-4.9-3.3-4.4-10.9,0.8-13.5c1.1-0.6,2.7-1,3.5-1
		c5.7,0,9.6,6.5,6.9,11.6C977.5,518,972.1,519.4,968.4,516.9z M988,517c-3.4-2-4.7-5.9-3.1-9.6c3.5-8,15-5.4,14.9,3.3
		C999.7,516.5,993.2,520,988,517L988,517z M1007.3,517c-2.6-1.6-3.7-3.8-3.5-7.1c0.2-3.4,1.3-5.1,4.3-6.6c8.5-4.2,15.5,8.1,7.6,13.5
		C1013.6,518.4,1009.6,518.4,1007.3,517L1007.3,517z M1026.8,517.1c-3.9-2.1-5.1-7.7-2.4-11.3c2.5-3.3,6.6-4.2,10.1-2.2
		c7,4,4.2,14.5-3.9,14.5C1029.5,518,1027.8,517.6,1026.8,517.1z M1046.1,517c-3.5-2.1-4.7-6.9-2.7-10.6c1.3-2.5,4.7-4.2,7.6-3.9
		c7.2,0.8,9.6,10.2,3.7,14.2C1052.2,518.4,1048.4,518.5,1046.1,517L1046.1,517z M1065.6,517.1c-2-1.1-4-4.5-4-6.7
		c0-5.7,6.4-9.6,11.4-7c5.4,2.7,5.7,10.5,0.5,13.7C1071.4,518.3,1067.9,518.3,1065.6,517.1L1065.6,517.1z M1084.8,517
		c-3.5-2.2-4.8-7.3-2.6-10.9c1.4-2.3,5-4,7.6-3.6c7.2,1,9.4,10.6,3.2,14.4C1090.8,518.4,1087.1,518.4,1084.8,517z M1103.8,516.8
		c-6-4.1-3.6-13.5,3.6-14.2c2.9-0.3,6.3,1.4,7.6,3.9c2,3.7,0.7,8.5-2.7,10.6C1109.9,518.5,1106.1,518.4,1103.8,516.8z M640,497.9
		c-7.3-3.6-4.6-14.6,3.6-14.6c8.2,0,10.9,11,3.5,14.6C644.4,499.2,642.6,499.2,640,497.9L640,497.9z M660.4,498.6
		c-3.5-1.4-5.9-5.4-5.3-8.8c0.9-5.3,7.5-8.3,11.8-5.4c2.7,1.8,3.7,3.6,3.7,6.3c0,4.5-2.9,7.7-7.2,8
		C662.2,498.8,660.8,498.7,660.4,498.6L660.4,498.6z M678.7,497.9c-3.8-1.9-5.3-6.7-3.4-10.6c2.7-5.5,10.9-5.5,13.8,0
		C692.7,494,685.5,501.3,678.7,497.9L678.7,497.9z M699.2,498.5c-2.8-1.1-5.5-4.7-5.5-7.7c0-3.9,3.9-7.6,8.2-7.6
		c5.7,0,9.5,6.7,6.6,11.6C706.7,497.9,702.1,499.7,699.2,498.5L699.2,498.5z M872.1,497.8c-6.8-3.9-4.1-14.5,3.7-14.5
		c3.2,0,5.5,1.4,7,4.1c1.5,2.8,1.3,5.7-0.6,8.2C879.7,498.9,875.6,499.8,872.1,497.8L872.1,497.8z M892.2,498.2
		c-7.7-3.4-5.4-14.9,3-14.9c5,0,8,3.2,7.7,8.1c-0.2,3.3-1.3,5.1-4.2,6.5C896.3,499.1,894.3,499.1,892.2,498.2L892.2,498.2z
		 M910.8,497.8c-2.7-1.6-4-3.9-4-7.1c0.1-7.9,11.3-10.3,14.7-3.2c1.3,2.7,1.3,4,0.1,6.7C919.8,498.4,914.7,500.1,910.8,497.8z
		 M931.2,498.3c-4.3-1.7-6.3-6.9-4.1-11c2.9-5.4,11.1-5.4,13.8,0C944.1,493.7,937.7,500.9,931.2,498.3L931.2,498.3z M950.8,498.6
		c-2-0.8-3.7-2.5-4.6-4.6c-3-6.8,4.5-13.4,11.2-9.7c4.9,2.7,5.1,9.8,0.5,13C956.2,498.6,952.4,499.2,950.8,498.6L950.8,498.6z
		 M969.1,497.9c-7.3-3.6-4.6-14.6,3.6-14.6c8.2,0,10.8,11.1,3.5,14.6C973.6,499.2,971.7,499.2,969.1,497.9L969.1,497.9z
		 M989.6,498.5c-2.8-1.1-5.5-4.7-5.5-7.7c0-2.2,1.9-5.3,4-6.5c3.8-2.1,8.1-1.1,10.8,2.5c1.4,1.8,1.4,5.8,0.1,8
		C997.1,497.9,992.6,499.7,989.6,498.5L989.6,498.5z M1007.9,497.9c-2.6-1.3-4.2-4.1-4.2-7.1c0-7.9,10.9-10.5,14.7-3.5
		C1021.9,494,1014.6,501.3,1007.9,497.9z M1028.3,498.5c-2.9-1.1-5.5-4.7-5.5-7.6c0-2.2,2.1-5.7,4-6.7c1-0.5,2.8-0.9,4.1-0.9
		c7.8,0,10.6,10.6,3.7,14.5C1032.7,498.8,1030,499.2,1028.3,498.5L1028.3,498.5z M1046.5,497.9c-5.3-2.7-5.6-10.5-0.5-13.6
		c2.2-1.4,6-1.3,8.3,0.1c2.4,1.5,3.9,4.6,3.6,7.4C1057.3,497.3,1051.6,500.4,1046.5,497.9L1046.5,497.9z M1066.2,498.1
		c-4.1-2-5.6-6.7-3.5-10.7c3.8-7.1,14.6-4.4,14.6,3.7C1077.2,496.8,1071.2,500.6,1066.2,498.1L1066.2,498.1z M1085.3,497.8
		c-7.2-3.8-4.5-14.5,3.7-14.5c3.1,0,5.5,1.4,6.9,4.2C1099.3,494.2,1092,501.4,1085.3,497.8z M1105.1,498.2c-2.8-1.2-4.8-4.3-4.8-7.2
		c0-2.3,1.8-5.4,3.6-6.6c2.3-1.4,6.1-1.5,8.3-0.1c5.2,3.2,4.8,11.2-0.6,13.6C1109.3,499,1107.2,499.1,1105.1,498.2L1105.1,498.2z
		 M678,478.1c-5-3.3-4.4-10.9,0.9-13.5c6.7-3.3,13.8,4,10.3,10.6C687.1,479.2,681.7,480.6,678,478.1z M697.5,478.2
		c-2.6-1.5-4.1-4.7-3.7-7.6c0.9-5.6,6.8-8.5,11.6-5.8c2.7,1.5,4,3.9,4,7C709.3,477.7,702.8,481.2,697.5,478.2L697.5,478.2z
		 M736.3,478.3c-2.5-1.3-4.2-4.8-3.7-7.7c0.9-5.6,6.8-8.5,11.6-5.8c7,4,4.2,14.5-3.8,14.4C739.1,479.2,737.3,478.8,736.3,478.3
		L736.3,478.3z M891,478.2c-3.4-2.2-4.6-7.3-2.5-10.5c2.6-3.8,6.3-4.9,10.1-3.1c5.5,2.7,5.9,10.5,0.8,13.7
		C897.1,479.6,893.2,479.6,891,478.2L891,478.2z M910.5,478.1c-2.6-1.8-3.6-3.5-3.7-6.3c-0.1-8.6,11.3-11.2,14.8-3.5
		c1.2,2.7,1.2,4-0.1,6.7C919.7,479,914.1,480.6,910.5,478.1z M929.6,478c-5.9-4-3.7-13.3,3.5-14.2c6-0.8,10.6,5.9,7.8,11.4
		C938.9,479.2,933.4,480.6,929.6,478L929.6,478z M949.5,478.3c-3.7-2.3-5-6-3.3-9.8c1.4-3.2,3.7-4.6,7.1-4.6c3.5,0,5.7,1.5,7.1,4.6
		c1.7,3.8,0.1,8-3.7,10C954.8,479.6,951.4,479.5,949.5,478.3L949.5,478.3z M968.4,478.1c-4.9-3.3-4.4-10.9,0.8-13.5
		c1.1-0.6,2.7-1,3.5-1c5.7,0,9.6,6.5,6.9,11.6C977.5,479.2,972.1,480.6,968.4,478.1L968.4,478.1z M987.9,478.2
		c-2.6-1.5-4.1-4.7-3.7-7.6c0.9-5.6,6.8-8.5,11.6-5.8c2.7,1.5,4,3.9,4,7C999.7,477.7,993.2,481.2,987.9,478.2L987.9,478.2z
		 M1007.3,478.3c-2.6-1.6-3.7-3.8-3.5-7.1c0.2-3.4,1.3-5.1,4.3-6.6c8.5-4.2,15.5,8.1,7.6,13.5
		C1013.6,479.6,1009.6,479.7,1007.3,478.3L1007.3,478.3z M1026.8,478.3c-3.9-2.1-5.1-7.7-2.4-11.3c2.5-3.3,6.6-4.2,10.1-2.2
		c7,4,4.2,14.5-3.9,14.5C1029.5,479.3,1027.8,478.9,1026.8,478.3L1026.8,478.3z M1046.1,478.3c-3.5-2.1-4.7-6.9-2.7-10.6
		c1.3-2.5,4.7-4.2,7.6-3.9c7.3,0.8,9.6,10.6,3.4,14.4C1052.1,479.6,1048.3,479.6,1046.1,478.3L1046.1,478.3z M1065.6,478.3
		c-2.4-1.3-4.2-4.7-3.9-7.5c0.3-2.6,2.2-5.2,4.6-6.3c5.1-2.4,11,1.3,11,7C1077.2,477.5,1070.9,481.2,1065.6,478.3z M1084.6,478
		c-1.9-1.3-3.5-4.3-3.5-6.6c0-5.5,6.5-9.4,11.4-6.8c5.4,2.7,5.7,10.5,0.5,13.7C1090.7,479.7,1087,479.6,1084.6,478z M1104.4,478.3
		c-2.4-1.4-3.6-3.8-3.6-6.7c0-9.8,14.4-10.5,15.5-0.7c0.3,2.8-1.2,5.9-3.6,7.4C1110.5,479.6,1106.7,479.6,1104.4,478.3L1104.4,478.3
		z M756.1,459.1c-5.3-2.7-5.6-10.5-0.5-13.6c2.2-1.4,6-1.3,8.3,0.1c2.4,1.5,3.9,4.6,3.6,7.4C766.8,458.6,761.1,461.6,756.1,459.1z
		 M794.5,458.9c-6.8-4.1-3.9-14.4,4-14.4c10,0,10.4,14.6,0.5,15.4C797,460.2,796.1,459.9,794.5,458.9L794.5,458.9z M833.5,459.1
		c-2.5-1.3-4-3.8-3.9-6.8c0-4.5,3.2-7.7,7.6-7.7c3.1,0,5.5,1.4,6.9,4.1C847.7,455.4,840.3,462.7,833.5,459.1L833.5,459.1z
		 M853.4,459.4c-7.7-3.4-5.4-14.9,3-14.9c4.6,0,7.8,3.1,7.8,7.6c0,3.1-1.4,5.5-4,6.9C857.8,460.3,855.7,460.4,853.4,459.4z
		 M872.1,459c-7-4-4.2-14.5,3.9-14.5c6.4,0,10.1,7.2,6.3,12.3C879.7,460.1,875.6,461,872.1,459L872.1,459z M892.2,459.4
		c-7.7-3.4-5.4-14.9,3-14.9c5,0,8,3.2,7.7,8.1c-0.2,3.3-1.3,5.1-4.2,6.5C896.3,460.3,894.3,460.4,892.2,459.4L892.2,459.4z
		 M910.8,459c-2.7-1.5-4-3.9-4-7c0.1-7.9,11.3-10.3,14.8-3.1C925,455.8,917.5,462.8,910.8,459L910.8,459z M931.2,459.6
		c-4.3-1.7-6.3-6.9-4.1-11c2.9-5.4,11.1-5.4,13.8,0C944.1,454.9,937.7,462.2,931.2,459.6L931.2,459.6z M950.8,459.8
		c-3.5-1.4-5.9-5.4-5.3-8.8c0.6-3.7,4-6.5,7.8-6.5c2.5,0,4.5,1,6.2,3c3.9,4.6,0.6,12-5.6,12.4C952.6,460,951.2,460,950.8,459.8
		L950.8,459.8z M1028.3,459.8c-2.9-1.1-5.5-4.7-5.5-7.6c0-2.2,2.1-5.7,4-6.7c1-0.5,2.8-0.9,4.1-0.9c7.8,0,10.6,10.6,3.7,14.5
		C1032.7,460.1,1030,460.4,1028.3,459.8L1028.3,459.8z M1046.5,459.1c-5.3-2.7-5.6-10.5-0.5-13.6c2.2-1.4,6-1.3,8.3,0.1
		c2.4,1.5,3.9,4.6,3.6,7.4C1057.3,458.6,1051.6,461.6,1046.5,459.1L1046.5,459.1z M1066.2,459.3c-4.1-2-5.6-6.7-3.5-10.7
		c3.8-7.1,14.6-4.4,14.6,3.7C1077.2,458,1071.2,461.8,1066.2,459.3L1066.2,459.3z M1085.9,459.4c-3.2-1.4-5.3-5.3-4.5-8.7
		c0.8-3.9,3.8-6.2,7.9-6.2c7.9,0,10.5,11,3.4,14.6C1090.5,460.3,1088.1,460.4,1085.9,459.4z M1104.8,459.2
		c-5.2-2.8-5.3-10.5-0.3-13.6c2.4-1.5,6.2-1.4,8.5,0.2c2.3,1.5,3.7,4.9,3.3,7.7C1115.4,458.7,1109.4,461.7,1104.8,459.2
		L1104.8,459.2z M639.3,439.4c-6-4.1-3.8-13.4,3.4-14.3c6-0.8,10.6,5.9,7.8,11.4C648.5,440.4,642.9,441.8,639.3,439.4z M697.5,439.4
		c-2.6-1.5-4.1-4.7-3.7-7.6c0.9-5.6,6.8-8.5,11.6-5.8c2.7,1.5,4,3.9,4,7C709.3,439,702.8,442.4,697.5,439.4L697.5,439.4z
		 M736.4,439.6c-3.9-2.1-5.1-7.7-2.4-11.3c2.5-3.3,6.6-4.2,10.1-2.2c7,4,4.2,14.5-3.9,14.5C739.1,440.5,737.4,440.1,736.4,439.6z
		 M775.2,439.6c-2-1.1-4-4.5-4-6.7c0-5.7,6.4-9.6,11.4-7c5.4,2.7,5.7,10.5,0.5,13.7C781,440.8,777.5,440.8,775.2,439.6L775.2,439.6z
		 M813.4,439.3c-6.1-4.1-3.5-13.6,3.9-14.2c8-0.7,11.4,10.3,4.6,14.4C819.5,441,815.7,440.9,813.4,439.3z M852.1,439.3
		c-6-4.1-3.6-13.5,3.6-14.2c1.7-0.2,2.7,0.1,4.4,0.9c5.3,2.8,5.5,10.4,0.4,13.5C858.2,441,854.4,440.9,852.1,439.3L852.1,439.3z
		 M871.8,439.4c-2.3-1.6-3.7-4-3.6-6.7c0.1-8.2,11-10.5,14.7-3.2c1.3,2.5,1.3,4.4-0.1,7C880.7,440.4,875.4,441.8,871.8,439.4
		L871.8,439.4z M891,439.4c-3.4-2.2-4.6-7.3-2.5-10.5c2.6-3.8,6.3-4.9,10.1-3.1c5.5,2.7,5.9,10.5,0.8,13.7
		C897.1,440.9,893.2,440.8,891,439.4L891,439.4z M929.7,439.4c-6-4.1-3.8-13.4,3.4-14.3c6-0.8,10.6,5.9,7.8,11.4
		C938.9,440.4,933.3,441.8,929.7,439.4z M949.5,439.6c-3.7-2.3-5-6-3.3-9.8c1.4-3.2,3.7-4.6,7.1-4.6c3.5,0,5.7,1.5,7.1,4.6
		c1.7,3.8,0.1,8-3.7,10C954.8,440.8,951.4,440.7,949.5,439.6L949.5,439.6z M968.4,439.4c-4.9-3.3-4.4-10.9,0.8-13.5
		c1.1-0.6,2.7-1,3.5-1c5.7,0,9.6,6.5,6.9,11.6C977.5,440.5,972.1,441.8,968.4,439.4z M1007.3,439.5c-2.6-1.6-3.7-3.8-3.5-7.1
		c0.2-3.4,1.3-5.1,4.3-6.6c8.5-4.2,15.5,8.1,7.6,13.5C1013.6,440.9,1009.6,440.9,1007.3,439.5L1007.3,439.5z M1026.8,439.6
		c-3.9-2.1-5.1-7.7-2.4-11.3c2.5-3.3,6.6-4.2,10.1-2.2c7,4,4.2,14.5-3.9,14.5C1029.5,440.5,1027.8,440.1,1026.8,439.6z
		 M1046.1,439.5c-3.5-2.1-4.7-6.9-2.7-10.6c1.3-2.5,4.7-4.2,7.6-3.9c7.2,0.8,9.6,10.2,3.7,14.2
		C1052.2,440.9,1048.4,441,1046.1,439.5L1046.1,439.5z M1065.6,439.6c-2-1.1-4-4.5-4-6.7c0-5.7,6.4-9.6,11.4-7
		c7.2,3.7,4.7,14.7-3.3,14.7C1068.3,440.5,1066.6,440.1,1065.6,439.6z M1084.8,439.5c-5-3.1-4.9-10.4,0.2-13.4
		c6.6-3.9,14.3,3.4,10.8,10.3c-0.6,1.1-1.8,2.5-2.8,3.1C1090.8,440.8,1087.1,440.9,1084.8,439.5z M1103.7,439.3
		c-3.4-2.3-4.4-7.7-2-10.8c2.6-3.5,6.5-4.4,10.1-2.5c5.3,2.8,5.5,10.4,0.4,13.5C1109.9,441,1106.1,440.9,1103.7,439.3z M640,420.4
		c-7.3-3.6-4.6-14.6,3.6-14.6c8.2,0,10.9,11,3.5,14.6C644.4,421.7,642.6,421.7,640,420.4L640,420.4z M678.7,420.4
		c-3.8-1.9-5.3-6.7-3.4-10.6c2.7-5.5,10.9-5.5,13.8,0C692.7,416.5,685.5,423.8,678.7,420.4L678.7,420.4z M717.5,420.4
		c-5.3-2.7-5.7-10.5-0.6-13.6c2.2-1.4,6-1.3,8.3,0.1c2.4,1.5,3.9,4.6,3.6,7.4C728.1,419.8,722.4,422.9,717.5,420.4L717.5,420.4z
		 M775.8,420.5c-4.1-2-5.6-6.7-3.5-10.7c3.8-7.1,14.6-4.4,14.6,3.7C786.8,419.3,780.8,423,775.8,420.5L775.8,420.5z M794.5,420.2
		c-6.8-4.1-3.9-14.4,4-14.4c10,0,10.4,14.6,0.5,15.4C797,421.4,796.1,421.2,794.5,420.2z M814.7,420.7c-4.2-1.9-5.9-6.7-3.8-10.8
		c2.7-5.3,10.5-5.5,13.6-0.4c1.4,2.2,1.3,6-0.1,8.3C822.5,420.9,818.1,422.2,814.7,420.7z M931.2,420.8c-4.3-1.7-6.3-6.9-4.1-11
		c2.9-5.4,11.1-5.4,13.8,0C944.1,416.2,937.7,423.4,931.2,420.8L931.2,420.8z M949.9,420.6c-7.4-3.7-4.8-14.8,3.4-14.8
		c5.9,0,9.6,5.9,6.9,11.1C958.3,420.8,953.7,422.4,949.9,420.6z M1007.9,420.4c-5.3-2.7-5.7-10.5-0.6-13.6c2.2-1.3,6.1-1.3,8.3,0
		c3.4,2.1,4.7,7.4,2.5,10.6C1015.6,421.1,1011.6,422.3,1007.9,420.4L1007.9,420.4z M1028.3,421c-2.9-1.1-5.5-4.7-5.5-7.6
		c0-2.2,2.1-5.7,4-6.7c1-0.5,2.8-0.9,4.1-0.9c7.8,0,10.6,10.6,3.7,14.5C1032.7,421.3,1030,421.7,1028.3,421L1028.3,421z
		 M1046.5,420.3c-5.3-2.7-5.6-10.5-0.5-13.6c2.2-1.4,6-1.3,8.3,0.1c2.4,1.5,3.9,4.6,3.6,7.4C1057.3,419.8,1051.6,422.9,1046.5,420.3
		L1046.5,420.3z M1066.2,420.5c-7.5-3.7-4.9-14.8,3.4-14.8c4.4,0,7.6,3.2,7.6,7.7C1077.2,419.3,1071.3,423.1,1066.2,420.5
		L1066.2,420.5z M1084.9,420.2c-6.8-4.1-3.9-14.4,4-14.4c10,0,10.4,14.6,0.5,15.4C1087.4,421.4,1086.6,421.2,1084.9,420.2z
		 M1105.1,420.7c-4.2-1.9-5.9-6.7-3.8-10.8c2.7-5.3,10.5-5.5,13.6-0.4c1.4,2.3,1.3,6-0.1,8.3
		C1112.9,420.8,1108.4,422.2,1105.1,420.7z M640.3,401.2c-3-1.5-4.2-3.3-4.4-6.5c-0.2-2.9,0.8-5.1,3.4-7.1c3.4-2.5,8.8-1.2,11,2.7
		C654,396.9,647,404.6,640.3,401.2z M660.6,401.7c-3.7-1.1-6.2-5.6-5.2-9.4c0.7-2.6,1.8-4,4.1-5.2c8-4.1,15.5,6.6,8.8,12.5
		c-1.4,1.3-4.8,2.7-5.8,2.5C662.3,402.2,661.4,402,660.6,401.7L660.6,401.7z M679,401.2c-4.4-2.2-5.8-6.8-3.4-11
		c2.1-3.8,7.6-5.1,10.9-2.6c2.6,1.9,3.7,4.1,3.5,7C689.5,400.4,684,403.7,679,401.2z M699.6,401.8c-5.4-1.6-7.5-8-4.2-12.4
		c2.4-3.1,6.3-4,9.8-2.2c5.7,2.9,5.7,10.9,0,13.8C703.4,401.9,701.1,402.2,699.6,401.8L699.6,401.8z M719,401.9
		c-1.6-0.4-4.2-2.6-5.1-4.3c-1-2-0.7-6.3,0.6-8.1c1.5-2.1,4.9-3.5,7.4-3.2c7.1,1,9.4,10.3,3.5,14.2
		C723.5,401.8,720.7,402.4,719,401.9z M757.4,401.8c-4.5-1.4-6.7-7.2-4.4-11.6c1.3-2.5,4.7-4.2,7.6-3.9c7.2,0.8,9.6,10.3,3.6,14.2
		C762,401.9,759.4,402.4,757.4,401.8z M775.6,401.1c-5.3-2.7-6-9.6-1.3-13.2c5.1-3.9,12.5-0.4,12.5,6c0,3.7-1.9,6.4-5.5,7.6
		C778.7,402.5,778.2,402.4,775.6,401.1L775.6,401.1z M796.1,401.8c-3.2-1-5.3-4.2-5.3-7.8c0-3,1.3-5.2,4.1-6.7
		c6.6-3.7,14.1,3.6,10.6,10.4C803.7,400.9,799.5,402.8,796.1,401.8L796.1,401.8z M814.4,401.2c-3.1-1.6-4.6-4.3-4.4-7.6
		c0.5-5.8,6.7-9.2,11.6-6.3c5.1,3,5.1,10.6,0.1,13.5C819.1,402.3,816.9,402.4,814.4,401.2L814.4,401.2z M872.4,401.2
		c-2.8-1.4-4.3-3.8-4.3-7c0-8.5,10.9-11,14.8-3.4C886.2,397.2,878.9,404.5,872.4,401.2L872.4,401.2z M892,401.2
		c-3.3-1.7-4.3-3.4-4.3-6.9c0-2.2,0.3-3.3,1-4.3c2.6-3.5,6.2-4.5,9.9-2.8c5.6,2.7,5.9,10.7,0.6,13.7
		C896.6,402.3,894.4,402.4,892,401.2z M911.2,401.2c-2.8-1.4-4.4-4-4.4-7c0-8.5,11.3-11,14.8-3.3c1.2,2.7,1.2,4-0.1,6.7
		C919.7,401.4,914.9,403.1,911.2,401.2z M930.7,401.2c-3-1.5-4.2-3.3-4.4-6.5c-0.2-2.9,0.8-5.1,3.4-7.1c3.4-2.5,8.8-1.2,11,2.7
		C944.5,396.9,937.4,404.6,930.7,401.2z M988.6,401.1c-5.9-3.1-5.8-11.3,0.2-14.2c2.3-1.1,4.5-1,6.9,0.2c5.7,2.9,5.7,10.9,0,13.8
		C993,402.4,991,402.4,988.6,401.1L988.6,401.1z M1009.5,401.9c-1.6-0.4-4.2-2.6-5-4.2c-1.9-3.7-0.2-8.8,3.7-10.6
		c3.7-1.8,7.3-0.8,9.9,2.8c1.5,2,1.4,6.5-0.1,8.7C1016.1,401.1,1012.2,402.6,1009.5,401.9L1009.5,401.9z M1027.3,401.2
		c-4.4-2.2-5.8-7.8-2.9-11.6c2.5-3.3,6.6-4.2,10.1-2.2c4,2.3,5.3,7.7,2.6,11.2C1034.6,401.9,1030.8,402.9,1027.3,401.2z
		 M1066.1,401.1c-5.3-2.7-6-9.6-1.3-13.2c5.1-3.9,12.5-0.4,12.5,6c0,3.7-1.9,6.4-5.5,7.6C1069.1,402.5,1068.6,402.4,1066.1,401.1
		L1066.1,401.1z M1086.5,401.8c-3.2-1-5.3-4.2-5.3-7.8c0-3,1.3-5.2,4.1-6.7c6.6-3.7,14.1,3.6,10.6,10.4
		C1094.1,400.9,1089.9,402.8,1086.5,401.8L1086.5,401.8z M1104.8,401.2c-3.1-1.6-4.6-4.3-4.4-7.6c0.5-5.8,6.7-9.2,11.6-6.3
		c5.1,3,5.1,10.6,0.1,13.5C1109.5,402.3,1107.3,402.4,1104.8,401.2L1104.8,401.2z M639.6,381.6c-5.1-2.7-5.1-10.5-0.1-13.4
		c5.4-3.1,11.8,0.5,11.8,6.7C651.3,380.8,645,384.4,639.6,381.6L639.6,381.6z M659.6,381.9c-1.9-0.8-3-2.1-4-4.6
		c-2.7-6.5,5.5-13.2,11.4-9.2c2.8,1.9,3.7,3.6,3.7,6.6c0,2.2-0.3,3-1.4,4.6C666.9,382.4,663.1,383.4,659.6,381.9L659.6,381.9z
		 M678.4,381.6c-5.1-2.7-5.1-10.5-0.1-13.4c5.4-3.1,11.8,0.5,11.8,6.7C690.1,380.8,683.8,384.4,678.4,381.6z M697.8,381.7
		c-2.6-1.6-3.9-3.9-3.9-6.9c-0.1-8,10.5-10.7,14.5-3.8c1.9,3.3,0.9,7.9-2.3,10.3C704.1,382.8,699.9,383,697.8,381.7z M717.4,381.8
		c-5-2.4-5.5-10.1-1-13.4c0.9-0.7,2.6-1.2,4.2-1.3c3.3-0.3,5.8,1.1,7.3,4C731.3,377.9,724.2,385.2,717.4,381.8z M736.5,381.5
		c-2.8-1.9-3.8-3.7-3.8-6.7c0-8,10.5-10.8,14.5-3.8c1.9,3.3,0.9,7.9-2.3,10.3c-0.8,0.6-2.4,1.1-4,1.2
		C738.6,382.7,737.9,382.5,736.5,381.5L736.5,381.5z M756.1,381.8c-2.4-1.2-3.8-3.4-4-6.5c-0.2-2.3,0-3,1.1-4.6
		c3.3-5,10.8-4.7,13.5,0.5C770.1,377.9,763,385.2,756.1,381.8z M775.2,381.5c-2.8-1.9-3.8-3.7-3.8-6.7c0-8,10.5-10.8,14.5-3.9
		c1.2,2.1,1.2,5.7,0,7.8c-1.4,2.4-3.3,3.6-6.3,3.8C777.4,382.7,776.6,382.5,775.2,381.5L775.2,381.5z M794.8,381.7
		c-2.7-1.4-4-3.7-4-6.9c0-8.2,11.3-10.9,14.6-3.6c1.2,2.7,1.2,4.5,0,7.1C803.5,382.2,798.6,383.7,794.8,381.7L794.8,381.7z
		 M813.8,381.5c-2.1-1.2-3.9-4.3-3.9-6.7c0-2.4,1.8-5.5,4-6.7c5.5-3.1,11.6,0.5,11.6,6.8C825.5,381,819.1,384.6,813.8,381.5
		L813.8,381.5z M833.6,381.8c-5.6-2.9-5.6-11,0-13.8c3.9-2,8.4-0.6,10.4,3.2C847.6,377.9,840.4,385.2,833.6,381.8z M872.5,381.9
		c-3.2-1.4-5.1-5.5-4.2-8.9c1-3.7,4-6,7.9-6c2.8,0,5.2,1.5,6.6,4.1C886.3,377.7,879.5,385,872.5,381.9z M911.3,381.9
		c-3.2-1.4-5.1-5.5-4.2-8.9c1.9-7.1,11.5-8.2,14.6-1.6C924.9,378,918.1,384.9,911.3,381.9L911.3,381.9z M930.1,381.6
		c-5.1-2.7-5.1-10.5-0.1-13.4c5.4-3.1,11.8,0.5,11.8,6.7C941.8,380.8,935.4,384.4,930.1,381.6L930.1,381.6z M949.3,381.5
		c-2.4-1.6-4.1-5.1-3.7-7.7c0.6-3.9,3.9-6.8,7.8-6.8c4.5,0,7.7,3.3,7.7,7.9c0,2.9-1.6,5.6-4.2,7C954.7,383,951.3,382.8,949.3,381.5z
		 M1007.8,381.8c-5-2.4-5.5-10.1-1-13.4c2.4-1.7,6.6-1.8,8.9-0.3c3.5,2.4,4.5,6.9,2.4,10.6C1016.2,382.2,1011.5,383.6,1007.8,381.8
		L1007.8,381.8z M1026.9,381.5c-2.8-1.9-3.8-3.7-3.8-6.7c0-8,10.5-10.8,14.5-3.8c1.9,3.3,0.9,7.9-2.3,10.3c-0.8,0.6-2.4,1.1-4,1.2
		C1029.1,382.7,1028.3,382.5,1026.9,381.5L1026.9,381.5z M1046.6,381.8c-2.4-1.2-3.8-3.4-4-6.5c-0.2-2.3,0-3,1.1-4.6
		c3.3-5,10.8-4.7,13.5,0.5C1060.5,377.9,1053.4,385.2,1046.6,381.8z M1065.6,381.5c-2.8-1.9-3.8-3.6-3.8-6.7
		c0-7.8,10.3-10.8,14.3-4.2c1.4,2.3,1.4,6.3-0.1,8.5C1073.7,382.6,1068.8,383.7,1065.6,381.5z M1085.2,381.7c-2.7-1.4-4-3.7-4-6.9
		c0-8.2,11.3-10.9,14.6-3.6c1.2,2.7,1.2,4.5,0,7.1C1093.9,382.2,1089,383.7,1085.2,381.7L1085.2,381.7z M1104.2,381.5
		c-2.1-1.2-3.9-4.3-3.9-6.7c0-2.4,1.8-5.5,4-6.7c5.5-3.1,11.6,0.5,11.6,6.8C1115.9,381,1109.5,384.6,1104.2,381.5L1104.2,381.5z
		 M660.6,363c-2.2-0.6-4.6-3.1-5.2-5.5c-1.5-5.7,3.9-11.1,9.5-9.5c4.1,1.1,6.7,5.5,5.6,9.5c-0.7,2.5-3,4.9-5.4,5.5
		C662.9,363.6,662.7,363.6,660.6,363L660.6,363z M679,362.4c-6.2-3.1-6.1-10.8,0.1-13.9c1.8-0.9,2.8-1.1,4.1-0.9
		c2.4,0.5,4.9,2.3,6,4.3c1.1,2.2,0.9,6-0.5,8c-1.1,1.5-4.9,3.6-6.5,3.6C681.7,363.5,680.2,363,679,362.4L679,362.4z M698.2,362.4
		c-5.5-2.8-6-10.1-0.9-13.4c5.3-3.5,12.1,0.1,12.1,6.4C709.4,361.3,703.4,365.1,698.2,362.4z M719,363.1c-1.6-0.4-4.2-2.6-5-4.2
		c-0.4-0.8-0.8-2.4-0.8-3.5c0-2.6,1-4.6,3.2-6.2c2.5-1.9,5.2-2.1,7.9-0.7c3.3,1.7,4.3,3.4,4.3,6.9c0,3.6-1.1,5.3-4.3,6.9
		C722.1,363.5,721.1,363.6,719,363.1L719,363.1z M736.9,362.4c-2.4-1.2-4.5-4.5-4.5-6.9c0-0.7,0.5-2.3,1.1-3.5
		c3.7-7.3,14.6-4.7,14.6,3.5C748.1,361.4,742.2,365.1,736.9,362.4z M757.4,363c-3-0.9-5.3-4.1-5.3-7.5c0-3.8,2.8-7.2,6.5-7.8
		c1.6-0.3,2.5-0.1,4.4,0.8c3.4,1.7,4.4,3.4,4.4,7c0,3.6-1.1,5.3-4.3,6.9C760.7,363.6,759.7,363.7,757.4,363L757.4,363z M775.7,362.4
		c-6.1-3.1-5.9-11.3,0.4-14.1c3.1-1.4,5.7-0.9,8.4,1.6c1.9,1.7,2,2.1,2.2,5c0.2,2.6,0.1,3.3-0.9,4.8
		C783.3,363.2,779.3,364.3,775.7,362.4z M796.1,363c-3.5-1-5.6-4.4-5.2-8.5c0.2-2.4,0.5-3,2.2-4.6c2.6-2.5,5.3-3,8.4-1.6
		c3.2,1.4,4.6,3.7,4.6,7.1c0,3.4-1.5,5.7-4.5,7.1C799.4,363.6,798.3,363.7,796.1,363L796.1,363z M814.6,362.6
		c-3-1.4-4.5-3.7-4.5-7.1c0-3.5,1.5-5.7,4.6-7.1c2.8-1.3,5.6-0.9,7.9,1.2c2.2,1.9,3,3.9,2.7,7c-0.2,2-0.6,2.9-1.9,4.3
		c-1.5,1.6-4.1,2.7-6,2.7C817,363.5,815.8,363.1,814.6,362.6L814.6,362.6z M834.8,363c-3.3-1-5.3-4-5.3-7.7
		c0-8.1,10.8-10.6,14.5-3.3c2.1,4.2,0.6,8.7-3.6,10.6C838.1,363.6,837.1,363.7,834.8,363L834.8,363z M853.4,362.6
		c-3.1-1.4-4.5-3.7-4.5-7.2c0-3.5,1.1-5.2,4.3-6.9c2.7-1.4,5.4-1.2,7.9,0.7C868.4,354.8,861.7,366.5,853.4,362.6L853.4,362.6z
		 M873.8,363c-3.6-1.1-5.6-3.8-5.6-7.6c0-8.3,10.9-10.9,14.6-3.5c0.6,1.2,1.1,2.8,1.1,3.5c0,2.5-2.1,5.7-4.5,6.9
		C877,363.6,875.9,363.7,873.8,363L873.8,363z M892,362.4c-3.3-1.7-4.3-3.4-4.3-6.9c0-3.6,1-5.3,4.3-6.9c5.1-2.6,11,1.1,11,6.9
		c0,2.6-1,4.6-3.2,6.2C897.4,363.6,894.7,363.8,892,362.4L892,362.4z M911.2,362.5c-5.8-3-5.8-11.2,0-14c2.6-1.3,4-1.3,6.7-0.1
		c3.9,1.8,5.6,6.3,3.8,10.2C919.9,362.7,915.2,364.5,911.2,362.5L911.2,362.5z M930.7,362.4c-2.9-1.5-4.1-3.3-4.4-6.3
		c-0.4-4.2,2.4-7.7,6.7-8.5c2.3-0.4,6.1,1.5,7.6,3.8c1.5,2.3,1.5,5.8,0,8.2c-1.2,1.8-4.9,4-6.7,4C933.4,363.5,931.9,363,930.7,362.4
		L930.7,362.4z M949.9,362.5c-5.9-2.9-5.8-11.2,0-14c2.7-1.3,4-1.3,6.7,0c2.8,1.4,4.4,3.9,4.4,7s-1.6,5.7-4.4,7
		C954,363.8,952.6,363.8,949.9,362.5L949.9,362.5z M969.4,362.4c-6.2-3.1-6.1-10.8,0.1-13.9c2.8-1.4,4.8-1.2,7.5,0.6
		c3.4,2.3,4.5,7.2,2.3,10.5c-1.2,1.8-4.9,4-6.7,4C972.1,363.5,970.7,363,969.4,362.4L969.4,362.4z M988.6,362.4
		c-7-3.5-5.3-13.6,2.6-14.8c1.3-0.2,2.5,0,4.1,0.8c6,2.9,6.1,11.2,0.1,14.1C992.7,363.8,991.4,363.8,988.6,362.4L988.6,362.4z
		 M1009.5,363.1c-1.6-0.4-4.2-2.6-5-4.2c-0.4-0.8-0.8-2.4-0.8-3.5c0-2.6,1-4.6,3.2-6.2c2.5-1.9,5.2-2.1,7.9-0.7
		c3.3,1.7,4.3,3.4,4.3,6.9c0,3.6-1.1,5.3-4.3,6.9C1012.6,363.5,1011.5,363.6,1009.5,363.1L1009.5,363.1z M1027.3,362.4
		c-2.4-1.2-4.5-4.4-4.5-6.9c0-2.5,2.1-5.7,4.5-6.9c2.8-1.4,4.1-1.4,6.9-0.1c2.8,1.4,4.3,3.8,4.3,7c0,3.2-1.5,5.6-4.3,7
		C1031.4,363.8,1030.1,363.8,1027.3,362.4L1027.3,362.4z M1047.8,363c-3-0.9-5.3-4.1-5.3-7.5c0-3.8,2.8-7.2,6.5-7.8
		c1.6-0.3,2.5-0.1,4.4,0.8c3.4,1.7,4.4,3.4,4.4,7c0,3.6-1.1,5.3-4.3,6.9C1051.1,363.6,1050.1,363.7,1047.8,363L1047.8,363z
		 M1066.1,362.4c-3.9-2-5.5-6.4-3.7-10.3c2.3-4.8,8.8-6,12.5-2.3C1081.2,356.1,1074,366.5,1066.1,362.4z M1086.5,363
		c-3-0.9-5.3-4.1-5.3-7.5c0-5.7,5.6-9.4,10.7-7.1c3.2,1.4,4.6,3.7,4.6,7.1c0,3.4-1.5,5.7-4.5,7.1
		C1089.8,363.6,1088.7,363.7,1086.5,363L1086.5,363z M1105,362.6c-3-1.4-4.5-3.7-4.5-7.1c0-3.5,1.5-5.7,4.6-7.1
		c2.8-1.3,5.6-0.9,7.9,1.2c2.2,1.9,3,3.9,2.7,7c-0.2,2-0.6,2.9-1.9,4.3c-1.5,1.6-4.1,2.7-6,2.7
		C1107.4,363.5,1106.2,363.1,1105,362.6L1105,362.6z M639.6,342.8c-5.1-2.7-5.1-10.5-0.1-13.4c5.3-3,11.8,0.7,11.8,6.8
		C651.3,342,644.9,345.6,639.6,342.8L639.6,342.8z M678.4,342.8c-5.1-2.7-5.1-10.5-0.1-13.4c3.8-2.2,8.9-0.9,10.8,2.9
		C692.7,339.4,685.4,346.6,678.4,342.8z M697.8,343c-2.6-1.7-3.9-4-3.9-7c0-3,1-4.7,3.8-6.6c1.4-1,2.2-1.1,4.4-1
		c3,0.2,4.9,1.4,6.4,3.9c1.9,3.3,0.9,7.9-2.3,10.2C704.1,344,699.9,344.2,697.8,343L697.8,343z M717.4,343c-4.9-2.4-5.5-10.1-1-13.3
		c0.8-0.6,2.6-1.2,3.9-1.3c3.1-0.3,6,1.2,7.5,3.9C731.5,338.9,724.3,346.4,717.4,343z M736.5,342.8c-2.8-1.9-3.8-3.7-3.8-6.7
		c0-3,1-4.8,3.8-6.7c1.4-1,2.2-1.1,4.4-1c4.4,0.3,7.3,3.5,7.3,7.7c0,4.2-3,7.3-7.3,7.7C738.6,343.9,737.9,343.8,736.5,342.8z
		 M756,342.9c-2.6-1.4-3.7-3.2-3.9-6.5c-0.2-2.4,0-3.2,1-4.6c3.4-5,10.9-4.6,13.5,0.7c1.3,2.7,1.3,4.9-0.1,7.3
		C764.5,343.5,759.7,344.9,756,342.9L756,342.9z M775.2,342.8c-2.8-1.9-3.8-3.7-3.8-6.7c0-3,1-4.8,3.8-6.7c1.4-1,2.2-1.1,4.4-1
		c4.4,0.4,7.2,3.3,7.2,7.7s-2.8,7.3-7.2,7.7C777.4,343.9,776.6,343.8,775.2,342.8z M794.8,342.9c-2.7-1.4-4-3.7-4-6.9
		c0-6.1,6.3-9.7,11.6-6.7c2.1,1.2,4,4.3,4,6.7C806.4,341.8,799.8,345.6,794.8,342.9z M813.8,342.8c-2.1-1.2-3.9-4.3-3.9-6.7
		c0-2.4,1.8-5.5,4-6.7c5.4-3,11.6,0.6,11.6,6.7C825.5,342.2,819.1,345.8,813.8,342.8z M833.6,343c-5.6-2.9-5.6-11,0-13.8
		c2.4-1.2,5.5-1.1,7.5,0.3c2.8,1.9,3.8,3.6,3.8,6.7c0,3-1,4.8-3.8,6.7C839.1,344.1,836,344.2,833.6,343z M852.5,342.8
		c-2.2-1.2-3.9-4.3-3.9-6.9c0-4.2,4.2-7.9,8.5-7.5c4.4,0.4,7.1,3.4,7.1,8.1C864.2,342.2,857.7,345.7,852.5,342.8L852.5,342.8z
		 M872.5,343.2c-4.4-1.9-5.8-8.1-2.7-12c2.3-2.9,7.1-3.8,10.1-1.8c2.8,1.9,3.8,3.6,3.8,6.7c0,3-1,4.8-3.8,6.7
		C877.9,344,874.9,344.2,872.5,343.2z M891.4,342.8c-3.7-2.1-5-6.8-2.9-10.5c3-5.4,11.1-5.2,13.8,0.3c1.1,2.3,0.8,6-0.7,8.1
		C899.4,343.8,894.7,344.8,891.4,342.8z M911.3,343.2c-4.5-2-5.8-8.1-2.6-12.1c2.2-2.9,7-3.6,10-1.6c2.8,1.9,3.8,3.6,3.7,6.7
		C922.3,341.9,916.6,345.5,911.3,343.2z M930.1,342.8c-5.1-2.7-5.1-10.5-0.1-13.4c5.3-3,11.8,0.7,11.8,6.7
		C941.8,342,935.4,345.7,930.1,342.8L930.1,342.8z M949.3,342.7c-3.9-2.6-4.9-7.8-2.2-11.3c2.5-3.3,7.1-4.2,10.3-2
		c3.9,2.6,4.9,7.8,2.2,11.3C957.1,344,952.5,344.9,949.3,342.7z M968.8,342.8c-5.1-2.7-5.1-10.5-0.1-13.4c3.8-2.2,8.9-0.9,10.8,2.9
		C983.1,339.4,975.8,346.6,968.8,342.8L968.8,342.8z M988.3,342.9c-2.6-1.6-3.9-3.9-3.9-6.9c0-3,1-4.7,3.8-6.6c1.4-1,2.2-1.1,4.4-1
		c10.2,0.8,9.5,15.5-0.8,15.5C990.7,343.9,989.1,343.4,988.3,342.9L988.3,342.9z M1007.8,343c-3.6-1.8-5.2-6.7-3.4-10.4
		c2.6-5.5,10.5-5.8,13.6-0.6C1022,338.8,1014.8,346.5,1007.8,343L1007.8,343z M1026.9,342.8c-2.8-1.9-3.8-3.7-3.8-6.7
		c0-3,1-4.8,3.8-6.7c1.4-1,2.2-1.1,4.4-1c4.4,0.3,7.3,3.5,7.3,7.7s-3,7.3-7.3,7.7C1029.1,343.9,1028.3,343.8,1026.9,342.8z
		 M1046.6,343c-2.4-1.2-3.8-3.4-4-6.5c-0.2-2.3,0-3,1.1-4.6c4.3-6.5,14.5-3.4,14.5,4.4C1058,341.7,1051.6,345.5,1046.6,343z
		 M1065.6,342.8c-2.8-1.9-3.8-3.7-3.8-6.7c0-3,1-4.8,3.8-6.7c1.4-1,2.2-1.1,4.4-1c4.4,0.4,7.2,3.3,7.2,7.7s-2.8,7.3-7.2,7.7
		C1067.8,343.9,1067,343.8,1065.6,342.8z M1085.2,342.9c-2.7-1.4-4-3.7-4-6.9c0-6.1,6.3-9.7,11.6-6.7c2.1,1.2,4,4.3,4,6.7
		C1096.8,341.8,1090.2,345.6,1085.2,342.9z M1104.2,342.8c-2.1-1.2-3.9-4.3-3.9-6.7c0-2.4,1.8-5.5,4-6.7c5.4-3,11.6,0.6,11.6,6.7
		C1115.9,342.2,1109.5,345.8,1104.2,342.8z M698.2,323.7c-7-3.5-5.3-13.6,2.6-14.8c1.3-0.2,2.5,0,4.1,0.8c6,2.9,6.1,11.2,0.1,14.1
		C702.3,325,701,325,698.2,323.7L698.2,323.7z M719,324.4c-1.6-0.4-4.2-2.6-5-4.2c-0.4-0.8-0.8-2.4-0.8-3.5c0-2.6,1-4.6,3.2-6.2
		c2.5-1.9,5.2-2.1,7.9-0.7c3.3,1.7,4.3,3.4,4.3,6.9c0,3.6-1.1,5.3-4.3,6.9C722.1,324.7,721.1,324.9,719,324.4L719,324.4z
		 M736.9,323.6c-2.4-1.2-4.5-4.4-4.5-6.9c0-0.7,0.5-2.3,1.1-3.5c3.7-7.4,14.6-4.7,14.6,3.5c0,3.2-1.5,5.6-4.3,7
		C741,325,739.7,325,736.9,323.6L736.9,323.6z M757.4,324.2c-3-0.9-5.3-4.1-5.3-7.5c0-5.7,5.6-9.4,10.7-7.1c3.2,1.4,4.6,3.7,4.6,7.2
		c0,3.5-1.1,5.2-4.3,6.8C760.7,324.8,759.7,324.9,757.4,324.2L757.4,324.2z M775.7,323.7c-6.1-3.1-5.9-11.3,0.4-14.1
		c5.2-2.3,10.2,0.9,10.6,6.8c0.2,2.4,0,3.2-1,4.6C783.3,324.5,779.3,325.5,775.7,323.7L775.7,323.7z M796.1,324.2
		c-3.5-1-5.6-4.4-5.2-8.5c0.2-2.4,0.5-3,2.2-4.6c2.6-2.5,5.3-3,8.4-1.6c3.2,1.4,4.6,3.7,4.6,7.1c0,3.4-1.5,5.7-4.5,7.1
		C799.4,324.8,798.3,324.9,796.1,324.2L796.1,324.2z M814.4,323.6c-6.1-3.1-5.8-11.3,0.4-14.1c2.8-1.3,5.6-0.9,7.9,1.2
		c2.2,1.9,3,3.9,2.7,7c-0.2,2-0.6,2.9-1.9,4.3c-1.5,1.6-4.1,2.7-6,2.7C817,324.8,815.6,324.2,814.4,323.6L814.4,323.6z M834.8,324.2
		c-3.3-1-5.3-4-5.3-7.7c0-5.8,5.9-9.4,11.1-6.7c6,3.1,5.9,11.3-0.2,14C838.1,324.8,837.1,324.9,834.8,324.2L834.8,324.2z
		 M853.4,323.8c-3-1.4-4.5-3.7-4.5-7.1c0-3.5,1.5-5.7,4.7-7.2c2.7-1.2,5.1-0.9,7.5,0.9C868.4,316,861.7,327.7,853.4,323.8
		L853.4,323.8z M873.8,324.3c-3.6-1.2-5.6-3.8-5.6-7.6c0-8.3,10.9-10.9,14.6-3.5c0.6,1.2,1.1,2.8,1.1,3.5c0,2-2.1,5.7-3.8,6.6
		C878.2,324.4,875.5,324.8,873.8,324.3L873.8,324.3z M892,323.7c-3.3-1.7-4.3-3.4-4.3-6.9c0-3.6,1-5.3,4.3-6.9
		c5.1-2.6,11,1.1,11,6.9c0,2.6-1,4.6-3.2,6.2C897.4,324.8,894.7,325.1,892,323.7L892,323.7z M911.2,323.7c-5.9-3-5.8-11.2,0-14
		c2.6-1.3,4-1.3,6.7-0.1c3.9,1.8,5.6,6.3,3.8,10.2C919.9,324,915.2,325.7,911.2,323.7L911.2,323.7z M930.7,323.6
		c-2.9-1.5-4.1-3.3-4.4-6.3c-0.4-4.2,2.4-7.7,6.7-8.5c2.3-0.4,6.1,1.5,7.6,3.8c1.5,2.3,1.5,5.8,0,8.2c-1.2,1.8-4.9,4-6.7,4
		C933.4,324.8,931.9,324.2,930.7,323.6L930.7,323.6z M949.9,323.7c-5.9-2.9-5.8-11.2,0-14c2.7-1.3,4-1.3,6.7,0
		c2.8,1.4,4.4,3.9,4.4,7s-1.6,5.7-4.4,7C954,325,952.6,325,949.9,323.7L949.9,323.7z M969.4,323.6c-6.2-3.1-6.1-10.8,0.1-13.9
		c2.8-1.4,4.8-1.2,7.5,0.6c3.4,2.3,4.5,7.2,2.3,10.5c-1.2,1.8-4.9,4-6.7,4C972.1,324.8,970.7,324.2,969.4,323.6L969.4,323.6z
		 M988.6,323.7c-7-3.5-5.3-13.6,2.6-14.8c1.3-0.2,2.5,0,4.1,0.8c6,2.9,6.1,11.2,0.1,14.1C992.7,325,991.4,325,988.6,323.7
		L988.6,323.7z M1009.5,324.4c-1.6-0.4-4.2-2.6-5-4.2c-1.1-2.2-1-5.6,0.4-7.6c1.5-2.3,5.4-4.2,7.6-3.8c4.3,0.8,7.1,4.3,6.7,8.5
		c-0.3,3-1.5,4.8-4.4,6.3C1012.6,324.7,1011.5,324.9,1009.5,324.4z M1027.3,323.6c-2.4-1.2-4.5-4.4-4.5-6.9c0-2.5,2.1-5.7,4.5-6.9
		c2.8-1.4,4.1-1.4,6.9-0.1c2.8,1.4,4.3,3.8,4.3,7s-1.5,5.6-4.3,7C1031.4,325,1030.1,325,1027.3,323.6L1027.3,323.6z M1047.8,324.2
		c-3-0.9-5.3-4.1-5.3-7.5c0-2.6,1-4.6,3.2-6.2c2.5-1.9,5.2-2.1,7.9-0.7c3.3,1.7,4.3,3.4,4.3,6.9c0,3.6-1.1,5.3-4.3,6.9
		C1051.1,324.8,1050.1,324.9,1047.8,324.2L1047.8,324.2z M1066.1,323.7c-6-3.1-5.8-11.4,0.4-14.1c5.2-2.3,10.2,0.9,10.6,6.8
		c0.2,2.4,0,3.2-1,4.6C1073.7,324.5,1069.7,325.5,1066.1,323.7L1066.1,323.7z M1086.5,324.2c-3-0.9-5.3-4.1-5.3-7.5
		c0-5.7,5.6-9.4,10.7-7.1c3.2,1.4,4.6,3.7,4.6,7.1c0,3.4-1.5,5.7-4.5,7.1C1089.8,324.8,1088.7,324.9,1086.5,324.2L1086.5,324.2z
		 M1104.8,323.7c-6.1-3.1-5.9-11.3,0.4-14.1c8.6-3.8,14.9,8.2,7.2,13.8C1110.3,324.9,1107.4,325,1104.8,323.7z M697.8,304.2
		c-2.6-1.7-3.9-4-3.9-7c0-8,10.4-10.7,14.5-3.7c1.9,3.3,0.9,7.9-2.3,10.3C704.1,305.3,699.9,305.5,697.8,304.2z M775.2,304
		c-2.8-1.9-3.8-3.6-3.8-6.7c0-7.7,9.9-10.7,14.2-4.3c2.5,3.7,1,9.3-2.9,11.2C780.2,305.5,777.2,305.4,775.2,304z M794.8,304.2
		c-2.7-1.4-4-3.7-4-6.9c0-6.1,6.3-9.7,11.6-6.7c2.1,1.2,4,4.3,4,6.7C806.4,303,799.8,306.9,794.8,304.2z M813.8,304
		c-2.1-1.2-3.9-4.3-3.9-6.7c0-2.4,1.8-5.5,4-6.7c5.4-3,11.6,0.6,11.6,6.7C825.5,303.5,819.1,307.1,813.8,304z M833.6,304.2
		c-5.6-3-5.6-10.9,0-13.8c2.4-1.2,5.5-1.1,7.5,0.3c2.8,1.9,3.8,3.6,3.8,6.7c0,3-1,4.8-3.8,6.7C839,305.4,835.9,305.5,833.6,304.2
		L833.6,304.2z M852.5,304c-2.2-1.2-3.9-4.3-3.9-6.9c0-4.2,4.2-7.9,8.5-7.5c4.4,0.4,7.1,3.4,7.1,8.1
		C864.2,303.4,857.7,307,852.5,304L852.5,304z M872.5,304.4c-4.3-1.9-5.7-7.9-2.8-11.8c2.2-3,7.2-4,10.2-1.9
		c2.8,1.9,3.8,3.6,3.8,6.7c0,3-1,4.8-3.8,6.7C877.9,305.3,874.9,305.5,872.5,304.4z M891.4,304c-1-0.6-2.3-1.9-2.9-3
		c-3.8-6.8,3.9-14.3,10.7-10.4c5.2,3,5,11.1-0.4,13.6C896.4,305.4,893.6,305.3,891.4,304L891.4,304z M911.3,304.4
		c-4.5-2-5.8-8.1-2.6-12.1c2.2-2.9,7-3.6,10-1.6c2.8,1.9,3.8,3.6,3.7,6.7C922.3,303.1,916.6,306.7,911.3,304.4z M930.1,304.1
		c-5.1-2.7-5.1-10.5-0.1-13.4c5.3-3,11.8,0.7,11.8,6.7C941.8,303.2,935.4,306.9,930.1,304.1L930.1,304.1z M949.3,304
		c-6.7-4.5-3.8-14.5,4.2-14.5c2.9,0,5.3,1.6,6.8,4.5c1.4,2.7,1.1,5.4-0.7,7.9C957.1,305.3,952.5,306.2,949.3,304L949.3,304z
		 M968.8,304.1c-5.1-2.7-5.1-10.5-0.1-13.4c5.3-3,11.8,0.7,11.8,6.8C980.5,303.2,974.1,306.9,968.8,304.1L968.8,304.1z M988.3,304.2
		c-4.1-2.5-5.3-7.7-2.5-11.3c2-2.6,4-3.5,7-3.2c4.3,0.4,7.1,3.6,7.1,8C999.7,303.3,993,307.1,988.3,304.2L988.3,304.2z
		 M1007.8,304.3c-3.6-1.8-5.2-6.7-3.4-10.4c2.6-5.5,10.5-5.8,13.6-0.6C1022,300.1,1014.8,307.8,1007.8,304.3L1007.8,304.3z
		 M1026.9,304c-2.8-1.9-3.8-3.7-3.8-6.7s1-4.8,3.8-6.7c1.4-1,2.2-1.1,4.4-1c4.4,0.3,7.3,3.5,7.3,7.7s-3,7.3-7.3,7.7
		C1029.1,305.2,1028.3,305,1026.9,304z M1046.6,304.3c-2.4-1.2-3.8-3.4-4-6.5c-0.2-2.3,0-3,1.1-4.6c4.3-6.5,14.5-3.4,14.5,4.4
		C1058,303,1051.6,306.8,1046.6,304.3z M1065.6,304c-2.8-1.9-3.8-3.7-3.8-6.7s1-4.8,3.8-6.7c1.4-1,2.2-1.1,4.4-1
		c4.4,0.4,7.2,3.3,7.2,7.7c0,4.3-2.8,7.3-7.2,7.7C1067.8,305.2,1067,305,1065.6,304z M1085.2,304.2c-2.7-1.4-4-3.7-4-6.9
		c0-6.1,6.3-9.7,11.6-6.7c2.1,1.2,4,4.3,4,6.7C1096.8,303,1090.2,306.9,1085.2,304.2z M1104.2,304c-2.1-1.2-3.9-4.3-3.9-6.7
		c0-2.4,1.8-5.5,4-6.7c5.4-3,11.6,0.6,11.6,6.7C1115.9,303.5,1109.5,307.1,1104.2,304z M719,285.6c-1.6-0.4-4.2-2.6-5-4.2
		c-0.4-0.8-0.8-2.4-0.8-3.5c0-2.6,1-4.6,3.2-6.2c2.5-1.9,5.2-2.1,7.9-0.7c3.3,1.7,4.3,3.4,4.3,6.9c0,3.6-1.1,5.3-4.3,6.9
		C722.1,286,721.1,286.1,719,285.6L719,285.6z M775.7,284.9c-6.1-3.1-5.9-11.3,0.4-14.1c5.2-2.3,10.2,0.9,10.6,6.8
		c0.2,2.4,0,3.2-1,4.6C783.3,285.7,779.3,286.8,775.7,284.9z M796.1,285.5c-3.5-1-5.6-4.4-5.2-8.5c0.2-2.4,0.5-3,2.2-4.6
		c2.8-2.6,5.4-3,8.6-1.4c6.1,3,6.1,11.3-0.1,14.1C799.4,286.1,798.3,286.1,796.1,285.5L796.1,285.5z M814.4,284.9
		c-6.1-3.1-5.9-11.3,0.4-14.1c8.6-3.8,14.9,8.2,7.2,13.8C819.8,286.1,817,286.2,814.4,284.9L814.4,284.9z M834.8,285.4
		c-3.3-1-5.3-4-5.3-7.7c0-8.1,10.8-10.6,14.5-3.3c2.1,4.2,0.6,8.7-3.6,10.6C838.1,286.1,837.1,286.1,834.8,285.4L834.8,285.4z
		 M853.4,285.1c-3.1-1.4-4.5-3.7-4.5-7.2c0-3.5,1.1-5.2,4.4-6.9c8.6-4.3,15.3,7.9,7.4,13.6C858.8,286,855.8,286.2,853.4,285.1
		L853.4,285.1z M873.8,285.5c-3.6-1.1-5.6-3.8-5.6-7.6c0-8.3,10.9-10.9,14.6-3.5c0.6,1.2,1.1,2.8,1.1,3.5c0,2.5-2.1,5.7-4.5,6.9
		C877,286,875.9,286.2,873.8,285.5L873.8,285.5z M892,284.9c-3.3-1.7-4.3-3.4-4.3-6.9s1-5.3,4.3-6.9c5.1-2.6,11,1.1,11,6.9
		c0,2.6-1,4.6-3.2,6.2C897.4,286.1,894.7,286.3,892,284.9z M911.2,285c-5.8-3-5.8-11.2,0-14c2.7-1.3,4-1.3,6.7-0.1
		c5.4,2.5,6.1,10.2,1.1,13.4C916.4,286.1,913.8,286.3,911.2,285L911.2,285z M930.7,284.9c-2.9-1.5-4.1-3.3-4.4-6.3
		c-0.4-4.2,2.4-7.7,6.7-8.5c2.3-0.4,6.1,1.5,7.6,3.8c1.5,2.3,1.5,5.8,0,8.2c-1.2,1.8-4.9,4-6.7,4C933.4,286,931.9,285.5,930.7,284.9
		L930.7,284.9z M949.9,284.9c-5.9-2.9-5.8-11.2,0-14c2.7-1.3,4-1.3,6.7,0c2.8,1.4,4.4,3.9,4.4,7s-1.6,5.7-4.4,7
		C954,286.3,952.6,286.3,949.9,284.9L949.9,284.9z M969.4,284.9c-6.2-3.1-6.1-10.8,0.1-13.9c2.8-1.4,4.8-1.2,7.5,0.6
		c3.4,2.3,4.5,7.2,2.3,10.5c-1.2,1.8-4.9,4-6.7,4C972.1,286,970.7,285.5,969.4,284.9z M988.6,284.9c-7-3.5-5.3-13.6,2.6-14.8
		c1.3-0.2,2.5,0,4.1,0.8c6,2.9,6.1,11.2,0.1,14.1C992.7,286.3,991.4,286.3,988.6,284.9L988.6,284.9z M1009.5,285.6
		c-1.6-0.4-4.2-2.6-5-4.2c-0.4-0.8-0.8-2.4-0.8-3.5c0-2.6,1-4.6,3.2-6.2c2.5-1.9,5.2-2.1,7.9-0.7c3.3,1.7,4.3,3.4,4.3,6.9
		c0,3.6-1.1,5.3-4.3,6.9C1012.6,286,1011.5,286.1,1009.5,285.6L1009.5,285.6z M1027.3,284.9c-2.4-1.2-4.5-4.4-4.5-6.9
		c0-2.5,2.1-5.7,4.5-6.9c2.8-1.4,4.1-1.4,6.9-0.1c2.8,1.4,4.3,3.8,4.3,7c0,3.2-1.5,5.6-4.3,7
		C1031.4,286.3,1030.1,286.3,1027.3,284.9L1027.3,284.9z M1047.8,285.5c-3-0.9-5.3-4.1-5.3-7.5c0-2.6,1-4.6,3.2-6.2
		c2.5-1.9,5.2-2.1,7.9-0.7c3.3,1.7,4.3,3.4,4.3,6.9c0,3.6-1.1,5.3-4.3,6.9C1051.1,286.1,1050.1,286.2,1047.8,285.5z M1066.1,284.9
		c-6-3.1-5.8-11.4,0.4-14.1c5.2-2.3,10.2,0.9,10.6,6.8c0.2,2.4,0,3.2-1,4.6C1073.7,285.7,1069.7,286.8,1066.1,284.9L1066.1,284.9z
		 M1086.5,285.5c-4.3-1.3-6.7-7-4.6-11c2.9-5.6,10.6-5.8,13.8-0.3c2.3,4,0.6,9-3.6,10.9C1089.8,286.1,1088.7,286.1,1086.5,285.5z
		 M1104.8,284.9c-6.1-3.1-5.9-11.3,0.4-14.1c8.6-3.8,14.9,8.2,7.2,13.8C1110.3,286.1,1107.4,286.2,1104.8,284.9z M678.4,265.3
		c-5.1-2.7-5.1-10.5-0.1-13.4c5.3-3,11.8,0.7,11.8,6.8C690.1,264.5,683.7,268.1,678.4,265.3z M717.4,265.5c-4.9-2.4-5.5-10.1-1-13.3
		c0.8-0.6,2.6-1.2,3.9-1.3c3.1-0.3,6,1.2,7.5,3.9C731.5,261.4,724.3,268.9,717.4,265.5z M736.5,265.3c-2.8-1.9-3.8-3.7-3.8-6.7
		c0-3,1-4.8,3.8-6.7c1.4-1,2.2-1.1,4.4-1c4.4,0.3,7.3,3.5,7.3,7.7s-3,7.3-7.3,7.7C738.6,266.4,737.9,266.3,736.5,265.3z
		 M794.8,265.4c-2.7-1.4-4-3.7-4-6.9c0-6.1,6.3-9.7,11.6-6.7c2.1,1.2,4,4.3,4,6.7C806.4,264.2,799.8,268.1,794.8,265.4z
		 M813.8,265.3c-2.1-1.2-3.9-4.3-3.9-6.7c0-2.4,1.8-5.5,4-6.7c5.4-3,11.6,0.6,11.6,6.7C825.5,264.7,819.1,268.3,813.8,265.3z
		 M833.5,265.4c-2.7-1.4-4-3.7-4-6.9c0-7.9,9.5-10.6,14.3-4.1c0.8,1,1.1,2.2,1.1,4.1c0,3-1,4.8-3.8,6.7
		C839,266.6,836,266.7,833.5,265.4L833.5,265.4z M852.5,265.3c-2.2-1.2-3.9-4.3-3.9-6.9c0-4.2,4.2-7.9,8.5-7.5
		c4.3,0.4,7.1,3.5,7.1,8.1C864.2,264.7,857.7,268.2,852.5,265.3L852.5,265.3z M891.4,265.3c-3.7-2.1-5-6.8-2.9-10.5
		c3-5.4,11.1-5.2,13.8,0.3c1.1,2.3,0.8,6-0.7,8.1C899.4,266.3,894.7,267.3,891.4,265.3L891.4,265.3z M911.3,265.7
		c-4.5-2-5.8-8.1-2.6-12.1c2.2-2.9,7-3.6,10-1.6c2.8,1.9,3.8,3.6,3.7,6.7C922.3,264.4,916.6,268,911.3,265.7z M930.1,265.3
		c-5.1-2.7-5.1-10.5-0.1-13.4c5.3-3,11.8,0.7,11.8,6.7C941.8,264.5,935.4,268.2,930.1,265.3L930.1,265.3z M949.3,265.2
		c-3.9-2.6-4.9-7.8-2.2-11.3c2.5-3.3,7.1-4.2,10.3-2c3.9,2.6,4.9,7.8,2.2,11.3C957.1,266.5,952.5,267.4,949.3,265.2z M968.8,265.3
		c-5.1-2.7-5.1-10.5-0.1-13.4c5.3-3,11.8,0.7,11.8,6.8C980.5,264.5,974.1,268.1,968.8,265.3L968.8,265.3z M988.3,265.4
		c-4.1-2.6-5.3-7.8-2.5-11.3c2-2.6,4-3.5,7-3.2c7.3,0.7,9.7,9.7,3.8,14.1C994.5,266.5,990.3,266.7,988.3,265.4z M1007.8,265.5
		c-3.6-1.8-5.2-6.7-3.4-10.4c2.6-5.5,10.5-5.8,13.6-0.6C1022,261.3,1014.8,269,1007.8,265.5L1007.8,265.5z M1026.9,265.3
		c-2.8-1.9-3.8-3.7-3.8-6.7c0-3,1-4.8,3.8-6.7c1.4-1,2.2-1.1,4.4-1c4.4,0.3,7.3,3.5,7.3,7.7c0,4.2-3,7.3-7.3,7.7
		C1029.1,266.4,1028.3,266.3,1026.9,265.3z M1046.6,265.5c-2.4-1.2-3.8-3.4-4-6.5c-0.2-2.3,0-3,1.1-4.6c4.3-6.5,14.5-3.4,14.5,4.4
		C1058,264.2,1051.6,268,1046.6,265.5z M1065.6,265.3c-2.8-1.9-3.8-3.7-3.8-6.7c0-3,1-4.8,3.8-6.7c1.4-1,2.2-1.1,4.3-1
		c4.5,0.4,7.3,3.4,7.3,7.7c0,4.3-2.9,7.3-7.2,7.6C1067.8,266.4,1067,266.3,1065.6,265.3L1065.6,265.3z M1085.2,265.4
		c-2.7-1.4-4-3.7-4-6.9c0-6.1,6.3-9.7,11.6-6.7c2.1,1.2,4,4.3,4,6.7C1096.8,264.2,1090.2,268.1,1085.2,265.4z M1104.2,265.3
		c-2.1-1.2-3.9-4.3-3.9-6.7c0-2.4,1.8-5.5,4-6.7c5.4-3,11.6,0.6,11.6,6.7C1115.9,264.7,1109.5,268.3,1104.2,265.3z M678.7,246.2
		c-4-2-5.5-7.5-3.1-11.1c1.5-2.3,5.4-4.2,7.6-3.8c5.6,1.1,8.7,7.5,5.7,11.9c-1.2,1.9-4.9,4-6.9,4
		C681.4,247.2,679.9,246.8,678.7,246.2L678.7,246.2z M698.1,246.3c-5.3-2.8-5.8-10.3-1-13.5c2.8-1.8,5-2.1,7.8-0.7
		c6,2.9,6.1,11.2,0.1,14.1C702.4,247.5,700.4,247.5,698.1,246.3L698.1,246.3z M717.5,246.2c-3.7-1.8-5.4-6.9-3.5-10.6
		c1.1-2.1,3.7-3.9,6.1-4.3c1.5-0.2,2.5,0,4.2,0.9c3.3,1.7,4.3,3.4,4.3,6.9c0,3.6-1.1,5.3-4.3,6.9
		C721.6,247.5,720.1,247.5,717.5,246.2L717.5,246.2z M775.8,246.4c-2.8-1.4-4.4-3.9-4.4-7.2c0-3.5,1.5-5.8,4.7-7.2
		c5.2-2.3,10.2,0.9,10.6,6.8c0.2,2.5,0,3.2-1,4.7c-1.3,2-4.6,3.8-6.8,3.8C778.1,247.2,776.7,246.9,775.8,246.4L775.8,246.4z
		 M794.5,246c-6.2-3.7-4.3-13.4,2.8-14.6c1.6-0.3,2.5-0.1,4.4,0.8c6.1,3,6.1,11.3-0.1,14.1C798.8,247.6,796.9,247.5,794.5,246z
		 M814.6,246.6c-3.3-1.5-5.3-5.4-4.6-8.9c1.1-5.6,8.2-8.2,12.4-4.6c4.2,3.6,4,9.5-0.6,12.9C820.2,247.1,816.6,247.5,814.6,246.6
		L814.6,246.6z M853.4,246.6c-4.7-2.1-6.2-8.5-3-12.3c3.7-4.3,10.5-3.6,13.1,1.5c1,1.8,0.9,5.2,0,7
		C861.7,246.2,856.8,248.1,853.4,246.6L853.4,246.6z M872.1,246.1c-5.2-2.9-5.3-10.7-0.2-13.7c2.2-1.3,5.8-1.3,8,0
		c1.9,1.1,4,4.6,4,6.8c0,2.5-2.1,5.7-4.5,6.9C876.5,247.5,874.6,247.5,872.1,246.1L872.1,246.1z M892.2,246.6
		c-6.4-2.9-6.2-12,0.4-14.7c5-2,10.5,1.8,10.5,7.3c0,1.1-0.3,2.7-0.8,3.5C900.5,246.2,895.5,248.1,892.2,246.6L892.2,246.6z
		 M910.8,246.1c-5.6-3.2-5.3-11.2,0.5-14c2.7-1.3,5-1.1,7.8,0.7c4.9,3.2,4.2,11-1.2,13.4C915.2,247.5,913.3,247.5,910.8,246.1
		L910.8,246.1z M931.2,246.7c-5.8-2.3-6.8-10.4-1.6-13.9c2.7-1.8,4.7-2,7.5-0.6c6.2,3.1,6.3,10.8,0.1,13.9
		C934.8,247.3,933.2,247.5,931.2,246.7L931.2,246.7z M949.9,246.4c-6.4-3.2-5.5-12.7,1.4-14.8c2.6-0.8,5.4,0,7.5,2.1
		c3.8,3.8,2.7,10.1-2.2,12.5C954.1,247.4,952.2,247.5,949.9,246.4L949.9,246.4z M969.1,246.2c-3.7-1.8-5.4-6.9-3.5-10.6
		c1.1-2.1,3.7-3.9,6.1-4.3c1.5-0.2,2.5,0,4.2,0.9c3,1.6,4.2,3.3,4.4,6.6c0.3,3.3-1.1,5.7-4.4,7.3
		C973.2,247.5,971.8,247.5,969.1,246.2L969.1,246.2z M988.6,246.3c-5.3-2.8-5.8-10.3-1-13.5c2.8-1.8,5-2.1,7.8-0.7
		c6,2.9,6.1,11.2,0.1,14.1C992.8,247.5,990.8,247.5,988.6,246.3L988.6,246.3z M1007.9,246.2c-3.7-1.8-5.4-6.9-3.5-10.6
		c1.1-2.1,3.9-4.1,6.1-4.4c1.4-0.2,2.5,0.1,4.1,0.9c3.3,1.7,4.3,3.4,4.3,7c0,3.6-1.1,5.3-4.3,6.9
		C1012,247.5,1010.5,247.5,1007.9,246.2L1007.9,246.2z M1028.3,246.9c-2.9-1.1-5.5-4.7-5.5-7.6c0-2.6,2-5.8,4.5-7
		c2.8-1.4,4.1-1.4,6.9-0.1c2.8,1.4,4.3,3.8,4.3,7c0,1.6-0.4,3-1.1,4.2C1035.7,246.2,1031.1,247.9,1028.3,246.9L1028.3,246.9z
		 M1046.5,246.2c-5.1-2.5-5.6-9.7-1-13.2c2.4-1.8,4.8-2.1,7.5-0.9c3.2,1.4,4.7,3.7,4.7,7.2c0,3.5-1.1,5.2-4.3,6.8
		C1050.7,247.5,1049.3,247.5,1046.5,246.2L1046.5,246.2z M1066.2,246.4c-4.1-2-5.7-7.1-3.5-11c1.5-2.7,4.9-4.5,7.6-4
		c4.2,0.6,6.4,3.1,6.8,7.4c0.2,2.5,0,3.2-1,4.7c-1.3,2-4.6,3.8-6.8,3.8C1068.5,247.2,1067.1,246.9,1066.2,246.4L1066.2,246.4z
		 M1085.2,246.1c-5-2.6-5.5-9.3-1-13.1c2.3-1.9,5.1-2.2,8-0.8c6.1,3,6.1,11.3-0.1,14.1C1089.3,247.5,1087.8,247.5,1085.2,246.1
		L1085.2,246.1z M1105.1,246.6c-3.3-1.5-5.3-5.4-4.6-8.9c1.1-5.6,8.2-8.2,12.4-4.6c4.2,3.6,4,9.5-0.6,12.9
		C1110.6,247.1,1107,247.5,1105.1,246.6z M697.6,226.6c-2.5-1.3-4.2-4.8-3.7-7.7c0.9-5.6,6.8-8.5,11.6-5.8c2.7,1.5,4,3.9,4,7
		C709.3,226,703,229.4,697.6,226.6z M716.9,226.6c-5.2-3.2-4.7-11,0.8-13.7c8.6-4.2,15.6,8.1,7.7,13.5
		C723.2,228,719.2,228,716.9,226.6L716.9,226.6z M736.4,226.7c-3.9-2.1-5.1-7.7-2.4-11.3c2.5-3.3,6.6-4.2,10.1-2.2
		c7,4,4.2,14.5-3.9,14.5C739.1,227.6,737.4,227.2,736.4,226.7L736.4,226.7z M775.2,226.7c-2.4-1.3-4.2-4.7-3.9-7.5
		c0.3-2.6,2.2-5.2,4.6-6.3c5.1-2.4,11,1.3,11,7C786.8,225.8,780.5,229.5,775.2,226.7L775.2,226.7z M833.2,226.6
		c-2.4-1.4-3.6-3.8-3.6-6.7c0-3.1,1.4-5.5,4.2-6.9c5.1-2.6,11.4,1.3,11.4,7c0,2.2-2.1,5.7-4,6.7
		C838.8,227.9,835.3,227.9,833.2,226.6L833.2,226.6z M871.8,226.5c-2.3-1.6-3.7-4-3.6-6.7c0.1-8.2,11-10.5,14.7-3.2
		c1.3,2.5,1.3,4.4-0.1,7C880.7,227.5,875.4,228.9,871.8,226.5L871.8,226.5z M890.9,226.4c-5.9-4-3.6-13.3,3.4-14.2
		c6.1-0.8,10.9,6.5,7.7,11.8C899.7,227.7,894.4,228.8,890.9,226.4L890.9,226.4z M910.5,226.5c-5-3.4-4.8-10.4,0.3-13.4
		c3.9-2.3,8.9-0.6,10.8,3.6c1.2,2.7,1.2,4-0.1,6.7C919.7,227.4,914.1,228.9,910.5,226.5z M929.7,226.5c-6-4.1-3.8-13.4,3.4-14.3
		c6-0.8,10.6,5.9,7.8,11.4C938.9,227.5,933.3,228.9,929.7,226.5z M949.5,226.7c-3.7-2.3-5-6-3.3-9.8c1.4-3.2,3.7-4.6,7.1-4.6
		c3.5,0,5.7,1.5,7.2,4.7c1.6,3.7,0.3,7.7-3.2,9.6C955,227.9,951.6,227.9,949.5,226.7L949.5,226.7z M968.4,226.5
		c-4.9-3.3-4.4-10.9,0.8-13.5c1.1-0.6,2.7-1,3.5-1c5.7,0,9.6,6.5,6.9,11.6C977.5,227.5,972.1,228.9,968.4,226.5z M987.9,226.5
		c-2-1.2-3.9-4.3-3.9-6.5c0-0.7,0.4-2.2,0.9-3.3c3.5-7.8,14.9-5.1,14.8,3.5C999.7,226.1,993.2,229.5,987.9,226.5L987.9,226.5z
		 M1007.3,226.6c-5.2-3.2-4.7-11,0.8-13.7c8.6-4.2,15.6,8.1,7.7,13.5C1013.6,228,1009.6,228,1007.3,226.6L1007.3,226.6z
		 M1026.8,226.7c-3.9-2.1-5.1-7.7-2.4-11.3c4.7-6.2,14-3,14,4.7c0,2.8-1.6,5.5-4.1,6.8C1032.4,227.9,1028.9,227.8,1026.8,226.7
		L1026.8,226.7z M1046.1,226.6c-3.5-2.1-4.7-6.9-2.7-10.6c1.3-2.5,4.7-4.2,7.6-3.9c7.2,0.8,9.6,10.2,3.7,14.2
		C1052.2,228,1048.4,228.1,1046.1,226.6L1046.1,226.6z M1065.6,226.7c-2-1.1-4-4.5-4-6.7c0-5.7,6.4-9.6,11.4-7
		c7.2,3.7,4.7,14.7-3.3,14.7C1068.3,227.6,1066.6,227.2,1065.6,226.7L1065.6,226.7z M1084.8,226.6c-3.5-2.2-4.8-7.3-2.6-10.9
		c1.4-2.3,5-4,7.6-3.6c7.2,1,9.4,10.6,3.2,14.4C1090.8,227.9,1087.1,228,1084.8,226.6L1084.8,226.6z M1103.7,226.4
		c-3.4-2.3-4.4-7.7-2-10.8c2.6-3.5,6.5-4.4,10.1-2.5c5.3,2.8,5.5,10.4,0.4,13.5C1109.9,228.1,1106.1,228,1103.7,226.4L1103.7,226.4z
		 M717.5,207.5c-5.3-2.7-5.7-10.5-0.6-13.6c2.2-1.3,6.1-1.3,8.3,0c3.4,2.1,4.7,7.4,2.5,10.6C725.2,208.2,721.2,209.4,717.5,207.5
		L717.5,207.5z M737.9,208.1c-2.9-1.1-5.5-4.7-5.5-7.6c0-2.2,2.1-5.7,4-6.7c2.4-1.3,6-1.2,8.1,0.2c5,3.4,4.8,10.4-0.3,13.3
		C742.3,208.4,739.6,208.7,737.9,208.1L737.9,208.1z M794.5,207.3c-6.8-4.1-3.9-14.4,4-14.4c7.6,0,10.7,9.2,4.6,13.8
		C800.5,208.7,797.2,208.9,794.5,207.3z M814.7,207.8c-4.2-1.9-5.9-6.7-3.8-10.8c2.7-5.3,10.5-5.5,13.6-0.4c1.3,2.2,1.3,6.2,0,8.2
		C822.4,207.9,818.1,209.3,814.7,207.8L814.7,207.8z M833.5,207.5c-2.5-1.3-4-3.8-3.9-6.8c0-4.5,3.2-7.7,7.6-7.7
		c3.1,0,5.5,1.4,6.9,4.1C847.6,203.7,840.3,211.1,833.5,207.5z M872.1,207.3c-7-4-4.2-14.5,3.9-14.5c6.4,0,10.1,7.2,6.3,12.3
		C879.7,208.5,875.6,209.4,872.1,207.3z M892.2,207.8c-7.7-3.4-5.4-14.9,3-14.9c4.9,0,8,3.2,7.7,8.1c-0.2,3.3-1.3,5.1-4.2,6.5
		C896.3,208.6,894.3,208.7,892.2,207.8L892.2,207.8z M910.8,207.3c-2.7-1.5-4-3.9-4-7c0.1-7.9,11.3-10.3,14.8-3.1
		C925,204.1,917.5,211.1,910.8,207.3L910.8,207.3z M931.2,207.9c-4.3-1.7-6.3-6.9-4.1-11c2.9-5.4,11.1-5.4,13.8,0
		C944.1,203.3,937.7,210.5,931.2,207.9L931.2,207.9z M950.8,208.2c-2-0.8-3.7-2.5-4.6-4.6c-3-6.8,4.5-13.4,11.2-9.7
		c4.9,2.7,5.1,9.8,0.5,13C956.2,208.1,952.4,208.8,950.8,208.2L950.8,208.2z M969.1,207.5c-7.3-3.6-4.6-14.6,3.6-14.6
		c8.2,0,10.8,11.1,3.5,14.6C973.6,208.8,971.7,208.8,969.1,207.5L969.1,207.5z M989.6,208.1c-1.9-0.7-3.7-2.5-4.6-4.5
		c-2.3-5.1,1.4-10.7,7.1-10.7c8.2,0,10.8,10.9,3.6,14.6C993.7,208.4,991.2,208.7,989.6,208.1z M1007.9,207.5
		c-2.6-1.3-4.2-4.1-4.2-7.1c0-7.9,10.9-10.5,14.7-3.5C1021.9,203.6,1014.6,210.9,1007.9,207.5L1007.9,207.5z M1028.3,208.1
		c-2.9-1.1-5.5-4.7-5.5-7.6c0-2.2,2.1-5.7,4-6.7c1-0.5,2.8-0.9,4.1-0.9c7.8,0,10.5,10.6,3.7,14.5
		C1032.7,208.4,1030,208.7,1028.3,208.1L1028.3,208.1z M1046.5,207.4c-5.3-2.7-5.6-10.5-0.5-13.6c2.2-1.4,6-1.3,8.3,0.1
		c2.4,1.5,3.9,4.6,3.6,7.4C1057.3,206.9,1051.6,210,1046.5,207.4L1046.5,207.4z M1066.3,207.7c-2.2-1.1-3.3-2.3-4.1-4.1
		c-1-2.3-0.9-4.2,0.5-6.7c3.8-7.1,14.5-4.3,14.5,3.8C1077.2,206.3,1071.1,210.2,1066.3,207.7L1066.3,207.7z M1085.3,207.4
		c-7.2-3.8-4.5-14.5,3.7-14.5c3.1,0,5.5,1.4,6.9,4.2C1099.3,203.8,1092,211,1085.3,207.4z M1105.1,207.8c-4.3-1.9-6-7-3.6-11.1
		c4-6.9,14.5-4,14.5,3.9c0,3.2-1.4,5.5-4.2,6.8C1109.2,208.6,1107.2,208.7,1105.1,207.8z M716.9,187.9c-2.6-1.6-3.7-3.8-3.5-7.1
		c0.2-3.4,1.3-5.1,4.3-6.6c8.5-4.2,15.5,8.1,7.6,13.5C723.2,189.2,719.2,189.3,716.9,187.9L716.9,187.9z M736.4,187.9
		c-3.9-2.1-5.1-7.7-2.4-11.3c2.5-3.3,6.6-4.2,10.1-2.2c6.8,3.9,4.1,14.5-3.7,14.5C739.2,188.9,737.4,188.4,736.4,187.9z
		 M755.7,187.9c-3.5-2.1-4.7-6.9-2.7-10.6c1.3-2.5,4.7-4.2,7.6-3.9c7.2,0.8,9.6,10.2,3.7,14.2C761.8,189.2,758,189.3,755.7,187.9
		L755.7,187.9z M794.4,187.9c-2.4-1.4-3.6-3.8-3.6-6.7c0-4.7,3.9-8.2,8.4-7.7c7.4,0.8,9.7,10.6,3.5,14.4
		C800.4,189.2,796.6,189.2,794.4,187.9L794.4,187.9z M813.3,187.6c-2.3-1.5-3.7-4.9-3.3-7.7c0.6-3.5,3.4-6.1,7-6.6
		c4.6-0.5,8.4,3.1,8.4,8C825.5,187.4,818.4,191.1,813.3,187.6z M890.9,187.6c-5.9-4-3.6-13.3,3.4-14.2c6.1-0.8,10.9,6.5,7.7,11.8
		C899.7,188.9,894.4,190.1,890.9,187.6L890.9,187.6z M910.5,187.7c-5-3.4-4.8-10.4,0.3-13.4c3.9-2.3,8.9-0.6,10.8,3.6
		c1.2,2.7,1.2,4-0.1,6.7C919.7,188.6,914.1,190.2,910.5,187.7z M929.7,187.7c-6-4.1-3.8-13.4,3.4-14.3c6-0.8,10.6,5.9,7.8,11.4
		C938.9,188.7,933.3,190.2,929.7,187.7z M949.5,187.9c-3.7-2.3-5-6-3.3-9.8c1.4-3.2,3.7-4.6,7.1-4.6c3.5,0,5.7,1.5,7.2,4.7
		c1.6,3.7,0.3,7.7-3.2,9.6C955,189.1,951.6,189.2,949.5,187.9L949.5,187.9z M968.4,187.7c-4.9-3.3-4.4-10.9,0.8-13.5
		c1.1-0.6,2.7-1,3.5-1c5.7,0,9.6,6.5,6.9,11.6C977.5,188.8,972.1,190.2,968.4,187.7z M987.9,187.7c-2.6-1.5-4.1-4.7-3.7-7.6
		c0.9-5.6,6.8-8.5,11.6-5.8c2.7,1.5,4,3.9,4,7C999.7,187.3,993.2,190.8,987.9,187.7L987.9,187.7z M1007.3,187.9
		c-2.6-1.6-3.7-3.8-3.5-7.1c0.2-3.4,1.3-5.1,4.3-6.6c8.5-4.2,15.5,8.1,7.6,13.5C1013.6,189.2,1009.6,189.3,1007.3,187.9
		L1007.3,187.9z M1026.8,187.9c-3.9-2.1-5.1-7.7-2.4-11.3c2.5-3.3,6.6-4.2,10.1-2.2c2.7,1.5,3.9,3.7,3.9,7c0,2.9-1.6,5.4-4.1,6.8
		C1032.4,189.1,1028.9,189.1,1026.8,187.9L1026.8,187.9z M1046.1,187.9c-3.5-2.1-4.7-6.9-2.7-10.6c1.3-2.5,4.7-4.2,7.6-3.9
		c7.2,0.8,9.6,10.2,3.7,14.2C1052.2,189.2,1048.4,189.3,1046.1,187.9L1046.1,187.9z M1065.6,187.9c-2-1.1-4-4.5-4-6.7
		c0-5.7,6.4-9.6,11.4-7c7.2,3.7,4.7,14.7-3.3,14.7C1068.3,188.9,1066.6,188.4,1065.6,187.9L1065.6,187.9z M1084.8,187.9
		c-3.5-2.2-4.8-7.3-2.6-10.9c1.4-2.3,5-4,7.6-3.6c7.2,1,9.4,10.6,3.2,14.4C1090.8,189.2,1087.1,189.2,1084.8,187.9z M1103.8,187.6
		c-6-4.1-3.6-13.5,3.6-14.2c1.7-0.2,2.7,0.1,4.4,0.9c5.3,2.8,5.5,10.4,0.4,13.5C1109.9,189.3,1106.1,189.2,1103.8,187.6z
		 M737.9,169.4c-2.9-1.1-5.5-4.7-5.5-7.6c0-2.2,2.1-5.7,4-6.7c1-0.5,2.8-0.9,4.1-0.9c7.8,0,10.6,10.6,3.7,14.5
		C742.3,169.7,739.6,170,737.9,169.4L737.9,169.4z M756.1,168.7c-5.3-2.7-5.6-10.5-0.5-13.6c2.2-1.4,6-1.3,8.3,0.1
		c2.4,1.5,3.9,4.6,3.6,7.4C766.8,168.2,761.1,171.2,756.1,168.7L756.1,168.7z M775.8,168.9c-4.1-2-5.6-6.7-3.5-10.7
		c3.8-7.1,14.6-4.4,14.6,3.7C786.8,167.6,780.8,171.4,775.8,168.9L775.8,168.9z M794.5,168.5c-6.8-4.1-3.9-14.4,4-14.4
		c10,0,10.4,14.6,0.5,15.4C797,169.7,796.1,169.5,794.5,168.5z M814.7,169c-4.4-2-6-7-3.5-11.1c4-6.9,14.4-4,14.4,4
		C825.5,167.5,819.8,171.3,814.7,169L814.7,169z M833.5,168.7c-5.2-2.8-5.3-10.5-0.3-13.6c2.1-1.3,5.6-1.3,7.9-0.1
		c2,1.1,4,4.5,4,6.7C845.1,167.5,838.5,171.5,833.5,168.7L833.5,168.7z M853.4,169c-7.7-3.4-5.4-14.9,3-14.9c4.6,0,7.8,3.1,7.8,7.6
		c0,3.1-1.4,5.5-4,6.9C857.8,169.9,855.7,170,853.4,169z M910.8,168.6c-2.7-1.5-4-3.9-4-7c0.1-7.9,11.3-10.3,14.8-3.1
		C925,165.3,917.5,172.4,910.8,168.6L910.8,168.6z M931.2,169.2c-4.3-1.7-6.3-6.9-4.1-11c2.9-5.4,11.1-5.4,13.8,0
		C944.1,164.5,937.7,171.8,931.2,169.2L931.2,169.2z M950.8,169.4c-2-0.8-3.7-2.5-4.6-4.6c-3-6.8,4.5-13.4,11.2-9.7
		c4.8,2.7,5.1,9.8,0.5,13.1C956.2,169.4,952.3,170,950.8,169.4L950.8,169.4z M969.1,168.7c-7.3-3.6-4.6-14.6,3.6-14.6
		c8.2,0,10.8,11.1,3.5,14.6C973.6,170,971.7,170,969.1,168.7L969.1,168.7z M989.6,169.4c-2.8-1.1-5.5-4.7-5.5-7.7
		c0-2.2,1.9-5.3,4-6.5c3.8-2.1,8.1-1.1,10.8,2.5c1.4,1.8,1.4,5.8,0.1,8C997.1,168.7,992.6,170.5,989.6,169.4z M1007.9,168.7
		c-5.3-2.7-5.7-10.5-0.6-13.6c2.2-1.3,6.1-1.3,8.3,0c3.4,2.1,4.7,7.4,2.5,10.6C1015.6,169.5,1011.6,170.6,1007.9,168.7L1007.9,168.7
		z M1028.3,169.4c-2.9-1.1-5.5-4.7-5.5-7.6c0-2.2,2.1-5.7,4-6.7c1-0.5,2.8-0.9,4.1-0.9c7.8,0,10.6,10.6,3.7,14.5
		C1032.7,169.7,1030,170,1028.3,169.4L1028.3,169.4z M1046.5,168.7c-5.3-2.7-5.6-10.5-0.5-13.6c2.2-1.4,6-1.3,8.3,0.1
		c2.4,1.5,3.9,4.6,3.6,7.4C1057.3,168.2,1051.6,171.2,1046.5,168.7L1046.5,168.7z M1066.2,168.9c-4.1-2-5.6-6.7-3.5-10.7
		c3.8-7.1,14.6-4.4,14.6,3.7C1077.2,167.6,1071.2,171.4,1066.2,168.9L1066.2,168.9z M1085.3,168.6c-7.2-3.8-4.5-14.5,3.7-14.5
		c3.1,0,5.5,1.4,6.9,4.2C1099.3,165.1,1092,172.2,1085.3,168.6z M1105.1,169c-4.2-1.9-5.9-6.7-3.8-10.8c2.7-5.3,10.5-5.5,13.6-0.4
		c1.3,2.2,1.3,6.2,0,8.2C1112.8,169.2,1108.5,170.5,1105.1,169L1105.1,169z M755.7,149.1c-3.5-2.1-4.7-6.9-2.7-10.6
		c1.3-2.5,4.7-4.2,7.6-3.9c7.2,0.8,9.6,10.2,3.7,14.2C761.8,150.5,758,150.6,755.7,149.1L755.7,149.1z M775.2,149.2
		c-2-1.1-4-4.5-4-6.7c0-5.7,6.4-9.6,11.4-7c5.4,2.7,5.7,10.5,0.5,13.7C781,150.4,777.5,150.4,775.2,149.2L775.2,149.2z M794.4,149.1
		c-2.4-1.4-3.6-3.8-3.6-6.7c0-4.7,3.9-8.2,8.4-7.7c7.4,0.8,9.7,10.6,3.5,14.4C800.4,150.4,796.6,150.5,794.4,149.1L794.4,149.1z
		 M814,149.3c-0.9-0.5-2.2-1.8-3-3c-2.9-4.9,0.2-10.9,6-11.6c4.6-0.5,8.4,3.1,8.4,8C825.5,148.3,819.3,151.9,814,149.3z
		 M833.2,149.1c-2.4-1.4-3.6-3.8-3.6-6.7c0-3.1,1.4-5.5,4.2-6.9c5.1-2.6,11.4,1.3,11.4,7c0,2.2-2.1,5.7-4,6.7
		C838.8,150.4,835.3,150.4,833.2,149.1L833.2,149.1z M891,149c-3.4-2.2-4.6-7.3-2.5-10.5c2.6-3.8,6.3-4.9,10.1-3.1
		c5.5,2.7,5.9,10.5,0.8,13.7C897.1,150.5,893.2,150.4,891,149L891,149z M929.7,149c-6-4.1-3.8-13.4,3.4-14.3
		c6-0.8,10.6,5.9,7.8,11.4C938.9,150,933.3,151.4,929.7,149z M949.5,149.2c-3.7-2.3-5-6-3.3-9.8c1.4-3.2,3.7-4.6,7.1-4.6
		c3.5,0,5.7,1.5,7.1,4.6c1.7,3.8,0.1,8-3.7,10C954.8,150.4,951.4,150.3,949.5,149.2L949.5,149.2z M968.4,149
		c-4.9-3.3-4.4-10.9,0.8-13.5c1.1-0.6,2.7-1,3.5-1c5.7,0,9.6,6.5,6.9,11.6C977.5,150,972.1,151.4,968.4,149z M987.9,149
		c-2.6-1.5-4.1-4.7-3.7-7.6c0.9-5.6,6.8-8.5,11.6-5.8c2.7,1.5,4,3.9,4,7C999.7,148.6,993.2,152,987.9,149L987.9,149z M1007.1,149
		c-5-3.3-4.4-10.9,0.9-13.5c8.6-4.2,15.6,8.1,7.7,13.5C1013.5,150.5,1009.5,150.5,1007.1,149L1007.1,149z M1026.8,149.2
		c-3.9-2.1-5.1-7.7-2.4-11.3c2.5-3.3,6.6-4.2,10.1-2.2c7,4,4.2,14.5-3.9,14.5C1029.5,150.1,1027.8,149.7,1026.8,149.2z
		 M1065.6,149.2c-2-1.1-4-4.5-4-6.7c0-5.7,6.4-9.6,11.4-7c7.2,3.7,4.7,14.7-3.3,14.7C1068.3,150.1,1066.6,149.7,1065.6,149.2
		L1065.6,149.2z M1084.8,149.1c-3.5-2.2-4.8-7.3-2.6-10.9c1.4-2.3,5-4,7.6-3.6c7.2,1,9.4,10.6,3.2,14.4
		C1090.8,150.4,1087.1,150.5,1084.8,149.1L1084.8,149.1z M1103.8,148.9c-6.1-4.1-3.5-13.6,3.9-14.2c8-0.7,11.4,10.3,4.6,14.4
		C1109.9,150.5,1106.1,150.5,1103.8,148.9z M775.8,130.1c-4.1-2-5.6-6.7-3.5-10.7c3.8-7.1,14.6-4.4,14.6,3.7
		C786.8,128.9,780.8,132.6,775.8,130.1L775.8,130.1z M794.5,129.8c-6.8-4.1-3.9-14.4,4-14.4c10,0,10.4,14.6,0.5,15.4
		C797,131,796.1,130.8,794.5,129.8z M910.8,129.8c-2.7-1.5-4-3.9-4-7c0.1-7.9,11.3-10.3,14.8-3.1C925,126.6,917.5,133.6,910.8,129.8
		L910.8,129.8z M989.6,130.6c-1.9-0.7-3.7-2.5-4.6-4.5c-2.3-5.1,1.4-10.7,7.1-10.7c8.2,0,10.8,10.9,3.6,14.6
		C993.7,130.9,991.2,131.2,989.6,130.6z M1007.9,130c-3.9-2-5.5-7.3-3.2-11c3.1-5.1,10.9-4.9,13.6,0.4
		C1021.7,126.2,1014.7,133.4,1007.9,130L1007.9,130z M1046.5,129.9c-5.3-2.7-5.6-10.5-0.5-13.6c2.2-1.4,6-1.3,8.3,0.1
		c2.4,1.5,3.9,4.6,3.6,7.4C1057.3,129.4,1051.6,132.5,1046.5,129.9L1046.5,129.9z M1066.2,130.1c-4.1-2-5.6-6.7-3.5-10.7
		c3.8-7.1,14.6-4.4,14.6,3.7C1077.2,128.9,1071.2,132.6,1066.2,130.1L1066.2,130.1z M1105.1,130.3c-4.2-1.9-5.9-6.7-3.8-10.8
		c2.7-5.3,10.5-5.5,13.6-0.4c1.3,2.2,1.3,6.2,0,8.2C1112.8,130.4,1108.5,131.8,1105.1,130.3L1105.1,130.3z M949.9,110.8
		c-3.9-2-5.5-6.3-3.8-10.2c1.4-3.2,3.7-4.7,7.2-4.7c3.5,0,5.7,1.5,7.1,4.6C963.4,107.1,956.2,114,949.9,110.8z M1027.3,110.7
		c-4.4-2.2-5.8-7.8-2.9-11.6c2.5-3.3,6.6-4.2,10.1-2.2c4,2.3,5.3,7.7,2.6,11.2C1034.6,111.5,1030.8,112.5,1027.3,110.7z
		 M1086.5,111.3c-3.2-1-5.3-4.2-5.3-7.8c0-3.1,1.4-5.4,4.3-6.8c5-2.4,10.5,0.6,11.1,6.2C1097.2,108.3,1091.7,112.9,1086.5,111.3z
		 M1104.8,110.7c-7.2-3.7-5.2-14.2,2.9-14.8c8.1-0.7,11.5,10.4,4.4,14.5C1109.5,111.9,1107.3,112,1104.8,110.7z M930.1,91.2
		c-5.1-2.7-5.1-10.5-0.1-13.4c5.4-3.1,11.8,0.5,11.8,6.7C941.8,90.3,935.4,94,930.1,91.2L930.1,91.2z M1007.8,91.4
		c-5-2.4-5.5-10.1-1-13.4c2.2-1.6,6.6-1.8,8.8-0.4c2,1.2,3.7,4.4,3.7,6.9C1019.3,90,1012.9,93.9,1007.8,91.4z M1026.9,91.1
		c-2.8-1.9-3.8-3.7-3.8-6.7c0-8,10.5-10.8,14.5-3.8c1.9,3.3,0.9,7.9-2.3,10.3c-0.8,0.6-2.4,1.1-4,1.2
		C1029.1,92.3,1028.3,92.1,1026.9,91.1L1026.9,91.1z M1065.6,91.1c-2.8-1.9-3.8-3.7-3.8-6.7c0-8,10.5-10.8,14.5-3.9
		c1.2,2.1,1.2,5.7,0,7.8c-1.4,2.4-3.3,3.6-6.3,3.8C1067.8,92.3,1067,92.1,1065.6,91.1z M1085.2,91.3c-2.7-1.4-4-3.7-4-6.9
		c0-8.1,11-10.9,14.6-3.7C1099.3,87.5,1091.9,94.9,1085.2,91.3z M930.7,72c-2.9-1.5-4.1-3.3-4.4-6.3c-0.4-4.2,2.4-7.7,6.7-8.5
		c2.3-0.4,6.1,1.5,7.6,3.8c1.5,2.3,1.5,5.8,0,8.2c-1.2,1.8-4.9,4-6.7,4C933.4,73.1,931.9,72.6,930.7,72L930.7,72z M1027.3,72
		c-2.4-1.2-4.5-4.5-4.5-6.9c0-0.7,0.5-2.3,1.1-3.5c3.7-7.3,14.6-4.7,14.6,3.5C1038.5,71,1032.6,74.7,1027.3,72L1027.3,72z
		 M1047.8,72.6c-3-0.9-5.3-4.1-5.3-7.5c0-2.6,1-4.6,3.2-6.2c2.5-1.9,5.2-2.1,7.9-0.7c3.3,1.7,4.3,3.4,4.3,6.9c0,3.6-1.1,5.3-4.3,6.9
		C1051.1,73.2,1050.1,73.3,1047.8,72.6z M1066.1,72c-6.1-3.1-5.9-11.3,0.4-14.1c5.2-2.3,10.2,0.9,10.6,6.8c0.2,2.4,0,3.2-1,4.6
		C1073.7,72.8,1069.7,73.9,1066.1,72z M1104.8,72c-6.1-3.1-5.8-11.3,0.4-14.1c2.8-1.3,5.6-0.9,7.9,1.2c2.2,1.9,3,3.9,2.7,7
		c-0.2,2-0.6,2.9-1.9,4.3c-1.5,1.6-4.1,2.7-6,2.7C1107.4,73.1,1106,72.6,1104.8,72L1104.8,72z M930.1,52.4
		c-5.1-2.7-5.1-10.5-0.1-13.4c5.3-3,11.8,0.7,11.8,6.8C941.8,51.6,935.4,55.2,930.1,52.4L930.1,52.4z M1007.8,52.6
		c-4.9-2.4-5.5-10.1-1-13.3c0.8-0.6,2.6-1.2,3.9-1.3c3.1-0.3,6,1.2,7.5,3.9C1021.9,48.5,1014.7,56,1007.8,52.6z M1085.2,52.5
		c-2.7-1.4-4-3.7-4-6.9c0-6.1,6.3-9.7,11.6-6.7c2.1,1.2,4,4.3,4,6.7C1096.8,51.3,1090.2,55.2,1085.2,52.5L1085.2,52.5z M1104.2,52.3
		c-2.1-1.2-3.9-4.3-3.9-6.7c0-2.4,1.8-5.5,4-6.7c5.4-3,11.6,0.6,11.6,6.7C1115.9,51.8,1109.5,55.4,1104.2,52.3L1104.2,52.3z
		 M930.7,33.2c-2.9-1.5-4.1-3.3-4.4-6.3c-0.4-4.2,2.4-7.7,6.7-8.5c2.3-0.4,6.1,1.5,7.6,3.8c1.5,2.3,1.5,5.8,0,8.2
		c-1.2,1.8-4.9,4-6.7,4C933.4,34.3,931.9,33.8,930.7,33.2L930.7,33.2z M1066.1,33.2c-6.1-3.1-5.9-11.3,0.4-14.1
		c5.2-2.3,10.2,0.9,10.6,6.8c0.2,2.4,0,3.2-1,4.6C1073.7,34,1069.7,35.1,1066.1,33.2z M1104.8,33.2c-6.1-3.1-5.9-11.3,0.4-14.1
		c8.6-3.8,14.9,8.2,7.2,13.8C1110.3,34.4,1107.4,34.6,1104.8,33.2z M949.3,13.6c-2.4-1.6-4.1-5.1-3.7-7.7c0.8-5.5,7.4-8.7,11.9-5.7
		c3.9,2.6,4.9,7.8,2.2,11.3C957.1,14.9,952.5,15.7,949.3,13.6L949.3,13.6z M1104.2,13.6c-2.1-1.2-3.9-4.3-3.9-6.7
		c0-2.4,1.8-5.5,4-6.7c5.4-3,11.6,0.6,11.6,6.7C1115.9,13,1109.5,16.7,1104.2,13.6L1104.2,13.6z M969.4-5.5
		c-6.2-3.1-6.1-10.8,0.1-13.9c1.8-0.9,2.8-1.1,4.1-0.9c2.4,0.5,4.9,2.3,6,4.3c1.1,2.2,0.9,6-0.5,8c-1.1,1.5-4.9,3.6-6.5,3.6
		C972.1-4.4,970.7-4.9,969.4-5.5L969.4-5.5z M1104.8-5.5c-6.1-3.1-5.9-11.3,0.4-14.1c8.6-3.8,14.9,8.2,7.2,13.8
		C1110.3-4.3,1107.4-4.2,1104.8-5.5z"/>
</g>
<circle class="st1" cx="203.3" cy="407" r="4.7"/>
<circle class="st1" cx="203.1" cy="446.3" r="4.7"/>
<circle class="st1" cx="164.5" cy="368.5" r="4.7"/>
<circle class="st1" cx="241.9" cy="504" r="4.7"/>
<rect x="217.7" y="269.9" class="st2" width="250.2" height="42.4"/>
<rect x="217.7" y="269.9" class="st3" width="250.2" height="42.4"/>
<g>
	<path class="st4" d="M237.9,290.1c0-1.1,0.2-2.1,0.6-3.1c0.4-1,0.9-1.9,1.7-2.8c0.7-0.8,1.6-1.5,2.7-2c1-0.5,2.2-0.7,3.5-0.7
		c1.6,0,2.9,0.4,4.1,1.1c1.1,0.7,2,1.6,2.5,2.7l-2.2,1.4c-0.3-0.7-0.7-1.3-1.2-1.7c-0.5-0.4-1-0.7-1.6-0.9c-0.6-0.2-1.1-0.2-1.7-0.2
		c-0.9,0-1.7,0.2-2.4,0.5c-0.7,0.4-1.3,0.9-1.7,1.5c-0.5,0.6-0.8,1.3-1.1,2c-0.2,0.7-0.4,1.5-0.4,2.2c0,0.8,0.1,1.6,0.4,2.4
		c0.3,0.8,0.7,1.5,1.2,2.1c0.5,0.6,1.1,1.1,1.8,1.4c0.7,0.3,1.4,0.5,2.2,0.5c0.6,0,1.1-0.1,1.7-0.3c0.6-0.2,1.2-0.5,1.7-0.9
		c0.5-0.4,0.9-1,1.2-1.7l2.3,1.3c-0.4,0.9-0.9,1.6-1.7,2.2c-0.8,0.6-1.6,1.1-2.5,1.4c-0.9,0.3-1.9,0.5-2.8,0.5
		c-1.2,0-2.3-0.3-3.3-0.8c-1-0.5-1.9-1.2-2.6-2.1c-0.7-0.9-1.3-1.8-1.7-2.9C238.1,292.3,237.9,291.2,237.9,290.1z"/>
	<path class="st4" d="M254.5,295.2c0-0.8,0.2-1.5,0.7-2.1c0.5-0.6,1.1-1.1,1.9-1.4c0.8-0.3,1.8-0.5,2.8-0.5c0.6,0,1.2,0,1.7,0.1
		c0.6,0.1,1.1,0.2,1.6,0.4v-0.8c0-0.9-0.3-1.6-0.8-2.1s-1.3-0.7-2.3-0.7c-0.7,0-1.4,0.1-2,0.4c-0.6,0.3-1.3,0.6-2,1.1l-0.9-1.8
		c0.8-0.6,1.7-1,2.6-1.3c0.9-0.3,1.8-0.4,2.7-0.4c1.7,0,3.1,0.4,4,1.3c1,0.9,1.5,2.2,1.5,3.8v4.7c0,0.3,0.1,0.5,0.2,0.7
		c0.1,0.1,0.3,0.2,0.6,0.2v2.2c-0.2,0-0.5,0.1-0.7,0.1c-0.2,0-0.4,0-0.5,0c-0.6,0-1-0.1-1.3-0.4c-0.3-0.3-0.5-0.6-0.5-1l-0.1-0.7
		c-0.6,0.7-1.3,1.3-2.1,1.7c-0.9,0.4-1.7,0.6-2.6,0.6c-0.8,0-1.6-0.2-2.3-0.5c-0.7-0.3-1.2-0.8-1.6-1.4
		C254.7,296.6,254.5,296,254.5,295.2z M262.6,296c0.2-0.2,0.4-0.4,0.5-0.6c0.1-0.2,0.2-0.4,0.2-0.6v-1.4c-0.5-0.2-0.9-0.3-1.4-0.4
		c-0.5-0.1-1-0.1-1.5-0.1c-1,0-1.8,0.2-2.4,0.6c-0.6,0.4-0.9,0.9-0.9,1.6c0,0.4,0.1,0.7,0.3,1.1c0.2,0.3,0.5,0.6,0.9,0.8
		c0.4,0.2,0.9,0.3,1.4,0.3c0.6,0,1.1-0.1,1.7-0.3C261.9,296.6,262.3,296.3,262.6,296z"/>
	<path class="st4" d="M269.2,298.9v-12.7h2.7v5h5.9v-5h2.7v12.7h-2.7v-5.3h-5.9v5.3H269.2z"/>
	<path class="st4" d="M283.8,298.9v-12.7h2.7v5h1.3l3.8-5h3l-4.7,6.1l5.2,6.6h-3.1l-4.2-5.3h-1.2v5.3H283.8z"/>
	<path class="st4" d="M300.1,298.9v-10.3h-4.2v-2.4H307v2.4h-4.3v10.3H300.1z"/>
	<path class="st4" d="M308.2,293.5V291h7.3v2.4H308.2z"/>
	<path class="st4" d="M319,298.9v-17.4h13.7v17.4h-2.8V284h-8.2v14.9H319z"/>
	<path class="st4" d="M342.1,299.2c-1,0-1.9-0.2-2.7-0.5c-0.8-0.3-1.5-0.8-2.1-1.4c-0.6-0.6-1-1.3-1.4-2.1c-0.3-0.8-0.5-1.6-0.5-2.5
		c0-1.2,0.3-2.3,0.8-3.3c0.6-1,1.3-1.8,2.3-2.4c1-0.6,2.2-0.9,3.5-0.9c1.3,0,2.5,0.3,3.5,0.9c1,0.6,1.7,1.4,2.3,2.4
		c0.5,1,0.8,2,0.8,3.2c0,0.2,0,0.4,0,0.5c0,0.2,0,0.3,0,0.4h-10.2c0,0.7,0.3,1.4,0.6,1.9c0.4,0.6,0.8,1,1.4,1.3
		c0.6,0.3,1.2,0.5,1.8,0.5c0.7,0,1.4-0.2,2-0.5c0.6-0.4,1.1-0.8,1.3-1.4l2.3,0.7c-0.3,0.6-0.7,1.2-1.3,1.7c-0.6,0.5-1.2,0.9-2,1.2
		C343.8,299,343,299.2,342.1,299.2z M338.3,291.7h7.7c0-0.7-0.3-1.4-0.6-1.9s-0.8-1-1.4-1.3c-0.6-0.3-1.2-0.5-1.9-0.5
		c-0.7,0-1.3,0.2-1.8,0.5c-0.6,0.3-1,0.7-1.4,1.3S338.3,291,338.3,291.7z"/>
	<path class="st4" d="M353.9,298.9v-10.3h-4.2v-2.4h11.2v2.4h-4.3v10.3H353.9z"/>
	<path class="st4" d="M368.6,299.2c-1,0-1.9-0.2-2.7-0.5c-0.8-0.3-1.5-0.8-2.1-1.4c-0.6-0.6-1-1.3-1.4-2.1c-0.3-0.8-0.5-1.6-0.5-2.5
		c0-1.2,0.3-2.3,0.8-3.3c0.6-1,1.3-1.8,2.3-2.4c1-0.6,2.2-0.9,3.5-0.9c1.3,0,2.5,0.3,3.5,0.9c1,0.6,1.7,1.4,2.3,2.4
		c0.5,1,0.8,2,0.8,3.2c0,0.2,0,0.4,0,0.5c0,0.2,0,0.3,0,0.4h-10.2c0,0.7,0.3,1.4,0.6,1.9c0.4,0.6,0.8,1,1.4,1.3
		c0.6,0.3,1.2,0.5,1.8,0.5c0.7,0,1.4-0.2,2-0.5c0.6-0.4,1.1-0.8,1.3-1.4l2.3,0.7c-0.3,0.6-0.7,1.2-1.3,1.7c-0.6,0.5-1.2,0.9-2,1.2
		C370.3,299,369.5,299.2,368.6,299.2z M364.8,291.7h7.7c0-0.7-0.3-1.4-0.6-1.9s-0.8-1-1.4-1.3c-0.6-0.3-1.2-0.5-1.9-0.5
		c-0.7,0-1.3,0.2-1.8,0.5c-0.6,0.3-1,0.7-1.4,1.3S364.8,291,364.8,291.7z"/>
	<path class="st4" d="M384.6,299.2c-1,0-1.9-0.2-2.7-0.7c-0.8-0.5-1.4-1.1-1.9-1.9v7.6h-2.7v-17.9h2.4v2.3c0.5-0.8,1.1-1.4,1.9-1.8
		c0.8-0.5,1.7-0.7,2.6-0.7c0.9,0,1.7,0.2,2.4,0.5c0.7,0.3,1.4,0.8,1.9,1.4c0.5,0.6,1,1.3,1.3,2.1c0.3,0.8,0.5,1.6,0.5,2.5
		c0,1.2-0.2,2.3-0.7,3.3c-0.5,1-1.1,1.8-2,2.4C386.7,298.9,385.7,299.2,384.6,299.2z M383.7,296.9c0.6,0,1.1-0.1,1.6-0.4
		c0.5-0.2,0.9-0.6,1.2-1c0.3-0.4,0.6-0.9,0.8-1.4c0.2-0.5,0.3-1,0.3-1.6c0-0.6-0.1-1.1-0.3-1.6s-0.5-1-0.8-1.3
		c-0.4-0.4-0.8-0.7-1.3-0.9c-0.5-0.2-1-0.3-1.6-0.3c-0.3,0-0.7,0.1-1.1,0.2c-0.4,0.1-0.7,0.3-1.1,0.5c-0.3,0.2-0.6,0.5-0.9,0.8
		c-0.2,0.3-0.4,0.6-0.5,1v3.3c0.2,0.5,0.5,1,0.9,1.4c0.4,0.4,0.8,0.7,1.3,1C382.7,296.8,383.2,296.9,383.7,296.9z"/>
	<path class="st4" d="M398.9,299.2c-2.1,0-3.8-0.6-4.9-1.9c-1.1-1.3-1.7-3.1-1.7-5.5c0-1.6,0.1-2.9,0.4-4c0.3-1.1,0.7-2,1.2-2.7
		c0.5-0.7,1.2-1.3,2-1.7c0.8-0.4,1.7-0.8,2.8-1.1l5.5-1.5l0.1,2.2l-5.4,1.5c-0.8,0.3-1.6,0.6-2.2,1c-0.6,0.4-1.1,1-1.4,1.6
		c-0.3,0.7-0.6,1.5-0.7,2.6c0.5-0.8,1.1-1.5,2-2c0.8-0.5,1.8-0.7,3-0.7c1.2,0,2.2,0.2,3.1,0.7c0.9,0.5,1.5,1.2,2,2.1
		c0.5,0.9,0.7,1.9,0.7,3c0,1.2-0.2,2.3-0.7,3.2c-0.5,0.9-1.2,1.7-2.2,2.2C401.5,298.9,400.3,299.2,398.9,299.2z M398.9,296.9
		c1.2,0,2.1-0.3,2.8-1c0.7-0.7,1-1.6,1-2.8c0-1.1-0.3-2-1-2.7c-0.7-0.7-1.6-1.1-2.8-1.1c-0.7,0-1.3,0.1-1.9,0.4
		c-0.6,0.3-1,0.7-1.3,1.3c-0.3,0.6-0.5,1.2-0.5,2c0,0.7,0.1,1.4,0.4,2c0.3,0.6,0.7,1,1.3,1.3C397.4,296.7,398.1,296.9,398.9,296.9z"
		/>
	<path class="st4" d="M409.1,304.1c-0.3,0-0.6,0-0.9-0.1c-0.3-0.1-0.7-0.2-1-0.4l0.7-2c0.2,0.1,0.4,0.2,0.6,0.2
		c0.2,0,0.3,0.1,0.5,0.1c0.4,0,0.8-0.2,1.1-0.5c0.3-0.3,0.6-0.8,0.9-1.5l0.5-1.3l-5.4-12.5h2.8l3.9,9.9l3.5-9.9h2.6l-5.6,14.5
		c-0.3,0.8-0.6,1.4-1,1.9c-0.4,0.5-0.9,0.9-1.4,1.1C410.2,304,409.7,304.1,409.1,304.1z"/>
	<path class="st4" d="M428,299.2c-1,0-1.9-0.2-2.7-0.7c-0.8-0.5-1.4-1.1-1.9-1.9v7.6h-2.7v-17.9h2.4v2.3c0.5-0.8,1.1-1.4,1.9-1.8
		c0.8-0.5,1.7-0.7,2.6-0.7c0.9,0,1.7,0.2,2.4,0.5c0.7,0.3,1.4,0.8,1.9,1.4c0.5,0.6,1,1.3,1.3,2.1c0.3,0.8,0.5,1.6,0.5,2.5
		c0,1.2-0.2,2.3-0.7,3.3c-0.5,1-1.1,1.8-2,2.4C430.1,298.9,429.1,299.2,428,299.2z M427.1,296.9c0.6,0,1.1-0.1,1.6-0.4
		c0.5-0.2,0.9-0.6,1.2-1c0.3-0.4,0.6-0.9,0.8-1.4c0.2-0.5,0.3-1,0.3-1.6c0-0.6-0.1-1.1-0.3-1.6c-0.2-0.5-0.5-1-0.8-1.3
		c-0.4-0.4-0.8-0.7-1.3-0.9c-0.5-0.2-1-0.3-1.6-0.3c-0.3,0-0.7,0.1-1.1,0.2c-0.4,0.1-0.7,0.3-1.1,0.5c-0.3,0.2-0.6,0.5-0.9,0.8
		c-0.2,0.3-0.4,0.6-0.5,1v3.3c0.2,0.5,0.5,1,0.9,1.4c0.4,0.4,0.8,0.7,1.3,1C426.1,296.8,426.6,296.9,427.1,296.9z"/>
	<path class="st4" d="M436.1,298.9v-12.7h8.2v2.4h-5.5v10.3H436.1z"/>
</g>
<line class="st5" x1="217.7" y1="312.3" x2="164.4" y2="368.5"/>
<rect x="232.3" y="334.6" class="st2" width="129.2" height="42.4"/>
<rect x="232.3" y="334.6" class="st3" width="129.1" height="42.4"/>
<g>
	<path class="st4" d="M268.2,363.6v-12.4l-5.1,9.4h-1.6l-5.1-9.4v12.4h-2.7v-17.4h2.9l5.7,10.6l5.7-10.6h2.9v17.4H268.2z"/>
	<path class="st4" d="M280,363.9c-1,0-1.9-0.2-2.7-0.5c-0.8-0.3-1.5-0.8-2.1-1.4c-0.6-0.6-1-1.3-1.3-2.1c-0.3-0.8-0.5-1.6-0.5-2.5
		c0-0.9,0.2-1.7,0.5-2.5c0.3-0.8,0.8-1.5,1.3-2.1c0.6-0.6,1.3-1.1,2.1-1.4c0.8-0.3,1.7-0.5,2.7-0.5c1,0,1.9,0.2,2.7,0.5
		c0.8,0.3,1.5,0.8,2.1,1.4c0.6,0.6,1,1.3,1.3,2.1c0.3,0.8,0.5,1.6,0.5,2.5c0,0.9-0.2,1.7-0.5,2.5c-0.3,0.8-0.8,1.5-1.3,2.1
		c-0.6,0.6-1.3,1.1-2.1,1.4C281.9,363.7,281,363.9,280,363.9z M276.2,357.3c0,0.8,0.2,1.5,0.5,2.2c0.3,0.6,0.8,1.1,1.4,1.5
		c0.6,0.4,1.2,0.6,1.9,0.6c0.7,0,1.3-0.2,1.9-0.6c0.6-0.4,1-0.9,1.4-1.5c0.3-0.7,0.5-1.4,0.5-2.2c0-0.8-0.2-1.5-0.5-2.2
		c-0.3-0.6-0.8-1.2-1.4-1.5c-0.6-0.4-1.2-0.6-1.9-0.6c-0.7,0-1.4,0.2-1.9,0.6c-0.6,0.4-1,0.9-1.4,1.5
		C276.4,355.8,276.2,356.5,276.2,357.3z"/>
	<path class="st4" d="M294.8,363.9c-1,0-1.9-0.2-2.7-0.5c-0.8-0.3-1.5-0.8-2.1-1.4c-0.6-0.6-1-1.3-1.4-2.1c-0.3-0.8-0.5-1.6-0.5-2.5
		c0-1.2,0.3-2.3,0.8-3.3c0.5-1,1.3-1.8,2.3-2.4s2.2-0.9,3.5-0.9c1.3,0,2.4,0.3,3.4,0.9c1,0.6,1.7,1.3,2.1,2.3l-2.6,0.8
		c-0.3-0.5-0.7-1-1.2-1.3c-0.5-0.3-1.1-0.5-1.7-0.5c-0.7,0-1.4,0.2-1.9,0.5c-0.6,0.4-1,0.9-1.4,1.5c-0.3,0.6-0.5,1.4-0.5,2.2
		c0,0.8,0.2,1.5,0.5,2.2c0.3,0.7,0.8,1.2,1.4,1.5c0.6,0.4,1.2,0.6,1.9,0.6c0.4,0,0.9-0.1,1.3-0.2c0.4-0.2,0.8-0.4,1.1-0.6
		c0.3-0.3,0.5-0.6,0.7-0.9l2.6,0.8c-0.3,0.6-0.7,1.2-1.2,1.7c-0.5,0.5-1.2,0.9-1.9,1.2C296.5,363.7,295.7,363.9,294.8,363.9z"/>
	<path class="st4" d="M302.7,363.6v-12.7h2.7v5h1.3l3.8-5h3l-4.7,6.1l5.2,6.6h-3.1l-4.2-5.3h-1.2v5.3H302.7z"/>
	<path class="st4" d="M316,363.6v-12.7h6.8c0.8,0,1.5,0.1,2,0.4c0.5,0.3,0.9,0.7,1.2,1.1c0.3,0.5,0.4,1,0.4,1.5
		c0,0.7-0.2,1.3-0.5,1.8c-0.3,0.5-0.8,0.9-1.4,1.2c0.7,0.2,1.3,0.6,1.8,1.1c0.5,0.5,0.7,1.2,0.7,2c0,0.7-0.2,1.4-0.5,1.9
		c-0.4,0.5-0.9,0.9-1.5,1.1c-0.7,0.3-1.4,0.4-2.3,0.4H316z M318.5,356.4h3.6c0.3,0,0.6-0.1,0.9-0.3c0.3-0.2,0.5-0.4,0.6-0.7
		c0.1-0.3,0.2-0.6,0.2-0.9c0-0.5-0.2-0.9-0.5-1.2c-0.3-0.3-0.7-0.5-1.2-0.5h-3.7V356.4z M318.5,361.8h4c0.3,0,0.7-0.1,0.9-0.3
		c0.3-0.2,0.5-0.4,0.7-0.7c0.2-0.3,0.2-0.6,0.2-0.9c0-0.4-0.1-0.7-0.2-0.9c-0.2-0.3-0.4-0.5-0.6-0.7c-0.3-0.2-0.6-0.2-0.9-0.2h-4.1
		V361.8z"/>
	<path class="st4" d="M328.6,359.9c0-0.8,0.2-1.5,0.7-2.1c0.5-0.6,1.1-1.1,1.9-1.4c0.8-0.3,1.8-0.5,2.8-0.5c0.6,0,1.2,0,1.7,0.1
		c0.6,0.1,1.1,0.2,1.6,0.4v-0.8c0-0.9-0.3-1.6-0.8-2.1c-0.5-0.5-1.3-0.7-2.3-0.7c-0.7,0-1.4,0.1-2,0.4c-0.6,0.3-1.3,0.6-2,1.1
		l-0.9-1.8c0.8-0.6,1.7-1,2.6-1.3c0.9-0.3,1.8-0.4,2.7-0.4c1.7,0,3.1,0.4,4,1.3c1,0.9,1.5,2.2,1.5,3.8v4.7c0,0.3,0.1,0.5,0.2,0.7
		c0.1,0.1,0.3,0.2,0.6,0.2v2.2c-0.2,0-0.5,0.1-0.7,0.1c-0.2,0-0.4,0-0.5,0c-0.6,0-1-0.1-1.3-0.4c-0.3-0.3-0.5-0.6-0.5-1l-0.1-0.7
		c-0.6,0.7-1.3,1.3-2.1,1.7c-0.9,0.4-1.7,0.6-2.6,0.6c-0.8,0-1.6-0.2-2.3-0.5c-0.7-0.3-1.2-0.8-1.6-1.4
		C328.8,361.3,328.6,360.7,328.6,359.9z M336.7,360.7c0.2-0.2,0.4-0.4,0.5-0.6c0.1-0.2,0.2-0.4,0.2-0.6v-1.4
		c-0.5-0.2-0.9-0.3-1.4-0.4c-0.5-0.1-1-0.1-1.5-0.1c-1,0-1.8,0.2-2.4,0.6c-0.6,0.4-0.9,0.9-0.9,1.6c0,0.4,0.1,0.7,0.3,1.1
		c0.2,0.3,0.5,0.6,0.9,0.8c0.4,0.2,0.9,0.3,1.4,0.3c0.6,0,1.1-0.1,1.7-0.3C336,361.3,336.4,361,336.7,360.7z"/>
</g>
<line class="st5" x1="232.3" y1="377" x2="203.3" y2="407"/>
<rect x="89.2" y="384" class="st2" width="94.8" height="42.4"/>
<rect x="89.2" y="384" class="st3" width="94.7" height="42.4"/>
<g>
	<path class="st4" d="M123.2,398.1h-5.8v14.9h-2.8v-14.9h-5.8v-2.4h14.3V398.1z"/>
	<path class="st4" d="M125.3,418.3c-0.3,0-0.6,0-0.9-0.1c-0.3-0.1-0.7-0.2-1-0.4l0.7-2c0.2,0.1,0.4,0.2,0.6,0.2
		c0.2,0,0.3,0.1,0.5,0.1c0.4,0,0.8-0.2,1.1-0.5c0.3-0.3,0.6-0.8,0.9-1.5l0.5-1.3l-5.4-12.5h2.8l3.9,9.9l3.5-9.9h2.6l-5.6,14.5
		c-0.3,0.8-0.6,1.4-1,1.9c-0.4,0.5-0.9,0.9-1.4,1.1C126.4,418.1,125.9,418.3,125.3,418.3z"/>
	<path class="st4" d="M135.9,413.1v-2.4c0.4,0,0.8-0.1,1.1-0.3c0.3-0.2,0.6-0.5,0.9-1s0.4-1.1,0.6-2c0.1-0.8,0.2-1.9,0.3-3.2
		l0.2-3.8h9.1v12.6h-2.7v-10.2h-4.1l0,1.7c-0.1,1.7-0.2,3.1-0.5,4.2c-0.2,1.1-0.6,2-1,2.6c-0.4,0.6-1,1.1-1.6,1.4
		C137.5,412.9,136.8,413.1,135.9,413.1z"/>
	<path class="st4" d="M150.3,409.4c0-0.8,0.2-1.5,0.7-2.1c0.5-0.6,1.1-1.1,1.9-1.4c0.8-0.3,1.8-0.5,2.8-0.5c0.6,0,1.2,0,1.7,0.1
		c0.6,0.1,1.1,0.2,1.6,0.4V405c0-0.9-0.3-1.6-0.8-2.1c-0.5-0.5-1.3-0.7-2.3-0.7c-0.7,0-1.4,0.1-2,0.4c-0.6,0.3-1.3,0.6-2,1.1
		l-0.9-1.8c0.8-0.6,1.7-1,2.6-1.3c0.9-0.3,1.8-0.4,2.7-0.4c1.7,0,3.1,0.4,4,1.3c1,0.9,1.5,2.2,1.5,3.8v4.7c0,0.3,0.1,0.5,0.2,0.7
		c0.1,0.1,0.3,0.2,0.6,0.2v2.2c-0.2,0-0.5,0.1-0.7,0.1c-0.2,0-0.4,0-0.5,0c-0.6,0-1-0.1-1.3-0.4c-0.3-0.3-0.5-0.6-0.5-1l-0.1-0.7
		c-0.6,0.7-1.3,1.3-2.1,1.7c-0.9,0.4-1.7,0.6-2.6,0.6c-0.8,0-1.6-0.2-2.3-0.5c-0.7-0.3-1.2-0.8-1.6-1.4
		C150.5,410.8,150.3,410.1,150.3,409.4z M158.5,410.1c0.2-0.2,0.4-0.4,0.5-0.6c0.1-0.2,0.2-0.4,0.2-0.6v-1.4
		c-0.5-0.2-0.9-0.3-1.4-0.4c-0.5-0.1-1-0.1-1.5-0.1c-1,0-1.8,0.2-2.4,0.6c-0.6,0.4-0.9,0.9-0.9,1.6c0,0.4,0.1,0.7,0.3,1.1
		c0.2,0.3,0.5,0.6,0.9,0.8c0.4,0.2,0.9,0.3,1.4,0.3c0.6,0,1.1-0.1,1.7-0.3C157.7,410.8,158.1,410.5,158.5,410.1z"/>
</g>
<line class="st5" x1="184" y1="426.6" x2="203.3" y2="446.4"/>
<rect x="302" y="399.5" class="st2" width="103.6" height="42.4"/>
<rect x="302" y="399.5" class="st3" width="103.5" height="42.4"/>
<g>
	<path class="st4" d="M322.2,419.7c0-1.1,0.2-2.1,0.6-3.1c0.4-1,0.9-1.9,1.7-2.8c0.7-0.8,1.6-1.5,2.7-2c1-0.5,2.2-0.7,3.5-0.7
		c1.6,0,2.9,0.4,4.1,1.1c1.1,0.7,2,1.6,2.5,2.7l-2.2,1.4c-0.3-0.7-0.7-1.3-1.2-1.7c-0.5-0.4-1-0.7-1.6-0.9c-0.6-0.2-1.1-0.2-1.7-0.2
		c-0.9,0-1.7,0.2-2.4,0.5c-0.7,0.4-1.3,0.9-1.7,1.5c-0.5,0.6-0.8,1.3-1.1,2c-0.2,0.7-0.4,1.5-0.4,2.2c0,0.8,0.1,1.6,0.4,2.4
		c0.3,0.8,0.7,1.5,1.2,2.1c0.5,0.6,1.1,1.1,1.8,1.4c0.7,0.3,1.4,0.5,2.2,0.5c0.6,0,1.1-0.1,1.7-0.3c0.6-0.2,1.2-0.5,1.7-0.9
		c0.5-0.4,0.9-1,1.2-1.7l2.3,1.3c-0.4,0.9-0.9,1.6-1.7,2.2c-0.8,0.6-1.6,1.1-2.5,1.4c-0.9,0.3-1.9,0.5-2.8,0.5
		c-1.2,0-2.3-0.3-3.3-0.8c-1-0.5-1.9-1.2-2.6-2.1c-0.7-0.9-1.3-1.8-1.7-2.9C322.4,421.9,322.2,420.8,322.2,419.7z"/>
	<path class="st4" d="M345.4,428.8c-1,0-1.9-0.2-2.7-0.5c-0.8-0.3-1.5-0.8-2.1-1.4c-0.6-0.6-1-1.3-1.3-2.1c-0.3-0.8-0.5-1.6-0.5-2.5
		c0-0.9,0.2-1.7,0.5-2.5c0.3-0.8,0.8-1.5,1.3-2.1c0.6-0.6,1.3-1.1,2.1-1.4c0.8-0.3,1.7-0.5,2.7-0.5c1,0,1.9,0.2,2.7,0.5
		c0.8,0.3,1.5,0.8,2.1,1.4c0.6,0.6,1,1.3,1.3,2.1c0.3,0.8,0.5,1.6,0.5,2.5c0,0.9-0.2,1.7-0.5,2.5c-0.3,0.8-0.8,1.5-1.3,2.1
		c-0.6,0.6-1.3,1.1-2.1,1.4C347.3,428.6,346.4,428.8,345.4,428.8z M341.6,422.2c0,0.8,0.2,1.5,0.5,2.2c0.3,0.6,0.8,1.1,1.4,1.5
		c0.6,0.4,1.2,0.6,1.9,0.6c0.7,0,1.3-0.2,1.9-0.6c0.6-0.4,1-0.9,1.4-1.5c0.3-0.7,0.5-1.4,0.5-2.2c0-0.8-0.2-1.5-0.5-2.2
		c-0.3-0.6-0.8-1.2-1.4-1.5c-0.6-0.4-1.2-0.6-1.9-0.6c-0.7,0-1.4,0.2-1.9,0.6c-0.6,0.4-1,0.9-1.4,1.5
		C341.7,420.7,341.6,421.4,341.6,422.2z"/>
	<path class="st4" d="M361.5,428.5v-4.8c-0.5,0.2-1,0.4-1.5,0.5c-0.5,0.1-1.1,0.2-1.8,0.2c-1.4,0-2.4-0.4-3.2-1.1s-1.1-1.8-1.1-3.2
		v-4.2h2.7v3.9c0,0.9,0.2,1.5,0.6,1.9c0.4,0.4,1,0.6,1.8,0.6c0.5,0,0.9,0,1.4-0.1c0.5-0.1,0.8-0.2,1.1-0.4v-5.9h2.7v12.7H361.5z"/>
	<path class="st4" d="M367.5,428.5v-12.7h2.7v9.1l6.5-9.1h2.4v12.7h-2.7v-8.9l-6.4,8.9H367.5z"/>
</g>
<line class="st5" x1="302" y1="441.9" x2="241.9" y2="504"/>
</svg>
